<svg width="1500" height="500" viewBox="0 0 1500 500" fill="none" xmlns="http://www.w3.org/2000/svg">
<rect width="1500" height="500" fill="#232830"/>
<path d="M263.18 188.2C263.964 188.2 264.748 188.2 265.532 188.2C266.316 188.2 267.128 188.2 267.968 188.2C268.808 188.2 269.592 188.2 270.32 188.2C270.544 188.2 270.712 188.256 270.824 188.368C270.936 188.424 271.02 188.536 271.076 188.704C271.188 188.872 271.216 189.124 271.16 189.46C271.104 190.804 271.048 192.82 270.992 195.508C270.936 198.14 270.852 201.248 270.74 204.832C270.628 208.36 270.46 212.168 270.236 216.256C270.068 220.288 269.844 224.404 269.564 228.604C269.34 232.748 269.088 236.78 268.808 240.7L266.96 238.096H272L269.228 240.532C270.908 236.836 272.784 232.776 274.856 228.352C276.984 223.872 279.168 219.28 281.408 214.576C283.704 209.816 285.944 205.196 288.128 200.716C290.312 196.18 292.356 192.008 294.26 188.2H303.92C304.088 188.2 304.228 188.228 304.34 188.284C304.508 188.34 304.592 188.424 304.592 188.536C304.648 188.648 304.676 188.816 304.676 189.04C304.676 191.728 304.676 194.752 304.676 198.112C304.732 201.472 304.76 205.028 304.76 208.78C304.76 212.532 304.76 216.312 304.76 220.12C304.76 223.928 304.732 227.596 304.676 231.124C304.62 234.596 304.564 237.76 304.508 240.616L302.828 238.096H308.288L304.928 240.364C306.552 236.5 308.204 232.664 309.884 228.856C311.62 225.048 313.3 221.296 314.924 217.6C316.604 213.904 318.256 210.32 319.88 206.848C321.504 203.376 323.016 200.072 324.416 196.936C325.872 193.8 327.216 190.888 328.448 188.2C329.232 188.2 330.044 188.2 330.884 188.2C331.724 188.2 332.564 188.2 333.404 188.2C334.244 188.2 335.028 188.2 335.756 188.2C336.036 188.2 336.232 188.256 336.344 188.368C336.512 188.48 336.596 188.62 336.596 188.788C336.652 188.956 336.624 189.152 336.512 189.376C335.392 191.56 334.16 194.08 332.816 196.936C331.472 199.736 330.044 202.76 328.532 206.008C327.02 209.256 325.452 212.616 323.828 216.088C322.204 219.56 320.552 223.088 318.872 226.672C317.192 230.256 315.54 233.784 313.916 237.256C312.292 240.728 310.724 244.06 309.212 247.252C308.484 247.252 307.672 247.252 306.776 247.252C305.88 247.252 304.956 247.252 304.004 247.252C303.052 247.252 302.128 247.252 301.232 247.252C300.336 247.252 299.552 247.252 298.88 247.252C298.656 247.252 298.46 247.168 298.292 247C298.18 246.832 298.124 246.524 298.124 246.076C298.068 243.332 298.012 240 297.956 236.08C297.9 232.16 297.844 227.96 297.788 223.48C297.732 218.944 297.704 214.38 297.704 209.788C297.704 205.196 297.788 200.828 297.956 196.684L299.468 198.952H294.512L297.452 196.768C295.828 200.184 294.12 203.768 292.328 207.52C290.592 211.272 288.8 215.052 286.952 218.86C285.104 222.612 283.312 226.252 281.576 229.78C279.84 233.308 278.216 236.556 276.704 239.524C275.248 242.492 273.988 245.068 272.924 247.252C271.916 247.252 270.768 247.252 269.48 247.252C268.248 247.252 266.988 247.252 265.7 247.252C264.412 247.252 263.264 247.252 262.256 247.252C262.032 247.252 261.836 247.168 261.668 247C261.556 246.832 261.528 246.524 261.584 246.076C261.584 244.172 261.584 241.792 261.584 238.936C261.64 236.08 261.724 232.916 261.836 229.444C261.948 225.972 262.06 222.332 262.172 218.524C262.34 214.66 262.48 210.796 262.592 206.932C262.704 203.012 262.816 199.204 262.928 195.508C262.984 194.22 263.012 192.96 263.012 191.728C263.068 190.496 263.124 189.32 263.18 188.2ZM349.548 209.788H352.32C353.384 207.94 354.532 206.4 355.764 205.168C356.996 203.88 358.368 202.956 359.88 202.396C361.392 201.78 363.044 201.472 364.836 201.472C366.18 201.472 367.272 201.612 368.112 201.892C368.952 202.172 369.512 202.452 369.792 202.732C369.904 202.844 369.988 202.984 370.044 203.152C370.156 203.264 370.184 203.404 370.128 203.572C369.96 204.132 369.792 204.692 369.624 205.252C369.512 205.812 369.372 206.344 369.204 206.848C369.092 207.352 368.952 207.884 368.784 208.444C368.672 209.004 368.532 209.592 368.364 210.208H367.02C366.46 209.984 365.816 209.788 365.088 209.62C364.36 209.396 363.408 209.284 362.232 209.284C360.44 209.284 358.732 209.62 357.108 210.292C355.54 210.964 353.916 212.168 352.236 213.904C350.556 215.584 348.736 217.908 346.776 220.876L349.548 209.788ZM341.568 247C340.784 247 339.944 247 339.048 247C338.208 247 337.34 247 336.444 247C335.604 247 334.792 247 334.008 247C333.896 247 333.784 247 333.672 247C333.56 246.944 333.476 246.888 333.42 246.832C333.364 246.72 333.308 246.608 333.252 246.496C333.252 246.384 333.28 246.244 333.336 246.076C333.448 245.74 333.728 244.704 334.176 242.968C334.624 241.176 335.156 238.964 335.772 236.332C336.444 233.644 337.144 230.788 337.872 227.764C338.656 224.684 339.412 221.66 340.14 218.692C340.924 215.668 341.624 212.98 342.24 210.628C342.688 208.836 343.08 207.24 343.416 205.84C343.808 204.384 344.088 203.208 344.256 202.312C345.152 202.312 346.048 202.312 346.944 202.312C347.84 202.312 348.708 202.312 349.548 202.312C350.388 202.312 351.172 202.312 351.9 202.312C352.068 202.312 352.208 202.34 352.32 202.396C352.432 202.452 352.516 202.564 352.572 202.732C352.628 202.844 352.628 203.012 352.572 203.236C352.236 204.636 351.732 206.596 351.06 209.116C350.444 211.58 349.744 214.38 348.96 217.516C348.176 220.596 347.364 223.872 346.524 227.344C345.684 230.816 344.816 234.232 343.92 237.592C343.08 240.952 342.296 244.088 341.568 247ZM376.697 202.312C378.545 202.312 380.253 202.312 381.821 202.312C383.445 202.312 385.069 202.312 386.693 202.312C388.317 202.312 390.025 202.312 391.817 202.312C391.985 202.312 392.125 202.34 392.237 202.396C392.349 202.452 392.433 202.564 392.489 202.732C392.545 202.844 392.545 203.012 392.489 203.236C391.817 205.924 391.145 208.612 390.473 211.3C389.801 213.932 389.129 216.592 388.457 219.28C387.841 221.968 387.197 224.684 386.525 227.428C385.853 230.116 385.153 232.832 384.425 235.576C384.145 236.584 384.005 237.424 384.005 238.096C384.061 238.712 384.257 239.188 384.593 239.524C384.817 239.804 385.153 240 385.601 240.112C386.105 240.224 386.693 240.28 387.365 240.28C387.869 240.28 388.373 240.28 388.877 240.28C389.381 240.28 389.857 240.28 390.305 240.28H391.565C391.341 241.232 391.089 242.212 390.809 243.22C390.585 244.172 390.361 245.152 390.137 246.16C390.081 246.496 389.941 246.72 389.717 246.832C389.493 246.944 389.241 247 388.961 247C388.849 247 388.625 247 388.289 247C388.009 247 387.673 247 387.281 247C386.945 247 386.553 247 386.105 247C383.921 247 382.129 246.72 380.729 246.16C379.329 245.544 378.265 244.704 377.537 243.64C376.865 242.576 376.473 241.344 376.361 239.944C376.249 238.544 376.389 237.06 376.781 235.492C377.397 233.196 377.957 230.956 378.461 228.772C379.021 226.532 379.581 224.32 380.141 222.136C380.701 219.952 381.233 217.768 381.737 215.584C382.297 213.4 382.857 211.216 383.417 209.032H381.905C381.121 209.032 380.421 209.032 379.805 209.032C379.189 209.032 378.573 209.032 377.957 209.032C377.397 209.032 376.725 209.032 375.941 209.032C375.717 209.032 375.521 208.976 375.353 208.864C375.241 208.696 375.213 208.444 375.269 208.108C375.493 207.212 375.717 206.26 375.941 205.252C376.221 204.244 376.473 203.264 376.697 202.312ZM388.373 181.984C389.157 181.984 389.941 181.984 390.725 181.984C391.565 181.984 392.377 181.984 393.161 181.984C394.001 181.984 394.813 181.984 395.597 181.984C396.437 181.984 397.249 181.984 398.033 181.984C398.313 181.984 398.509 182.068 398.621 182.236C398.789 182.404 398.817 182.628 398.705 182.908L396.605 191.14C395.821 191.14 395.009 191.14 394.169 191.14C393.385 191.14 392.573 191.14 391.733 191.14C390.949 191.14 390.137 191.14 389.297 191.14C388.513 191.14 387.729 191.14 386.945 191.14C386.665 191.14 386.469 191.056 386.357 190.888C386.245 190.72 386.217 190.496 386.273 190.216L388.373 181.984ZM404.297 202.312H435.713C436.049 202.312 436.273 202.396 436.385 202.564C436.497 202.732 436.525 202.956 436.469 203.236C436.301 203.964 436.133 204.664 435.965 205.336C435.797 205.952 435.629 206.596 435.461 207.268C435.293 207.94 435.125 208.64 434.957 209.368H403.457C403.345 209.368 403.233 209.368 403.121 209.368C403.009 209.312 402.925 209.256 402.869 209.2C402.813 209.088 402.757 208.976 402.701 208.864C402.701 208.752 402.729 208.612 402.785 208.444C402.953 207.716 403.121 207.044 403.289 206.428C403.457 205.756 403.625 205.084 403.793 204.412C404.017 203.74 404.185 203.04 404.297 202.312ZM427.313 239.776C427.033 240.896 426.753 241.96 426.473 242.968C426.249 243.92 425.997 244.956 425.717 246.076C425.661 246.412 425.521 246.664 425.297 246.832C425.073 246.944 424.821 247 424.541 247C424.261 247 423.897 247 423.449 247C423.057 247 422.609 247 422.105 247C421.601 247 421.097 247 420.593 247C420.089 247 419.557 247 418.997 247C416.365 247 414.041 246.664 412.025 245.992C410.009 245.32 408.413 244.284 407.237 242.884C406.061 241.428 405.333 239.608 405.053 237.424C404.773 235.24 405.025 232.636 405.809 229.612C406.481 226.756 407.153 223.956 407.825 221.212C408.553 218.468 409.253 215.724 409.925 212.98C410.597 210.236 411.269 207.492 411.941 204.748C412.669 201.948 413.397 199.148 414.125 196.348C414.461 195.004 414.797 193.66 415.133 192.316C415.469 190.916 415.805 189.544 416.141 188.2C417.261 188.2 418.381 188.2 419.501 188.2C420.621 188.2 421.741 188.2 422.861 188.2C423.029 188.2 423.169 188.256 423.281 188.368C423.393 188.424 423.477 188.536 423.533 188.704C423.589 188.816 423.589 188.956 423.533 189.124C422.693 192.484 421.853 195.844 421.013 199.204C420.173 202.564 419.305 205.952 418.409 209.368C417.569 212.728 416.729 216.116 415.889 219.532C415.049 222.892 414.181 226.28 413.285 229.696C412.781 231.824 412.529 233.56 412.529 234.904C412.585 236.192 412.977 237.228 413.705 238.012C414.321 238.684 415.189 239.16 416.309 239.44C417.429 239.664 418.829 239.776 420.509 239.776C421.237 239.776 421.853 239.776 422.357 239.776C422.861 239.776 423.365 239.776 423.869 239.776C424.373 239.776 424.989 239.776 425.717 239.776H427.313ZM443.06 202.312C444.908 202.312 446.616 202.312 448.184 202.312C449.808 202.312 451.432 202.312 453.056 202.312C454.68 202.312 456.388 202.312 458.18 202.312C458.348 202.312 458.488 202.34 458.6 202.396C458.712 202.452 458.796 202.564 458.852 202.732C458.908 202.844 458.908 203.012 458.852 203.236C458.18 205.924 457.508 208.612 456.836 211.3C456.164 213.932 455.492 216.592 454.82 219.28C454.204 221.968 453.56 224.684 452.888 227.428C452.216 230.116 451.516 232.832 450.788 235.576C450.508 236.584 450.368 237.424 450.368 238.096C450.424 238.712 450.62 239.188 450.956 239.524C451.18 239.804 451.516 240 451.964 240.112C452.468 240.224 453.056 240.28 453.728 240.28C454.232 240.28 454.736 240.28 455.24 240.28C455.744 240.28 456.22 240.28 456.668 240.28H457.928C457.704 241.232 457.452 242.212 457.172 243.22C456.948 244.172 456.724 245.152 456.5 246.16C456.444 246.496 456.304 246.72 456.08 246.832C455.856 246.944 455.604 247 455.324 247C455.212 247 454.988 247 454.652 247C454.372 247 454.036 247 453.644 247C453.308 247 452.916 247 452.468 247C450.284 247 448.492 246.72 447.092 246.16C445.692 245.544 444.628 244.704 443.9 243.64C443.228 242.576 442.836 241.344 442.724 239.944C442.612 238.544 442.752 237.06 443.144 235.492C443.76 233.196 444.32 230.956 444.824 228.772C445.384 226.532 445.944 224.32 446.504 222.136C447.064 219.952 447.596 217.768 448.1 215.584C448.66 213.4 449.22 211.216 449.78 209.032H448.268C447.484 209.032 446.784 209.032 446.168 209.032C445.552 209.032 444.936 209.032 444.32 209.032C443.76 209.032 443.088 209.032 442.304 209.032C442.08 209.032 441.884 208.976 441.716 208.864C441.604 208.696 441.576 208.444 441.632 208.108C441.856 207.212 442.08 206.26 442.304 205.252C442.584 204.244 442.836 203.264 443.06 202.312ZM454.736 181.984C455.52 181.984 456.304 181.984 457.088 181.984C457.928 181.984 458.74 181.984 459.524 181.984C460.364 181.984 461.176 181.984 461.96 181.984C462.8 181.984 463.612 181.984 464.396 181.984C464.676 181.984 464.872 182.068 464.984 182.236C465.152 182.404 465.18 182.628 465.068 182.908L462.968 191.14C462.184 191.14 461.372 191.14 460.532 191.14C459.748 191.14 458.936 191.14 458.096 191.14C457.312 191.14 456.5 191.14 455.66 191.14C454.876 191.14 454.092 191.14 453.308 191.14C453.028 191.14 452.832 191.056 452.72 190.888C452.608 190.72 452.58 190.496 452.636 190.216L454.736 181.984ZM477.215 202.312C478.111 202.312 478.951 202.312 479.735 202.312C480.519 202.312 481.303 202.312 482.087 202.312C482.871 202.312 483.627 202.312 484.355 202.312C484.523 202.312 484.663 202.368 484.775 202.48C484.887 202.536 484.971 202.648 485.027 202.816C485.083 202.928 485.083 203.068 485.027 203.236C484.131 206.876 483.207 210.516 482.255 214.156C481.359 217.796 480.435 221.464 479.483 225.16C478.587 228.8 477.691 232.44 476.795 236.08C475.899 239.72 474.975 243.36 474.023 247C473.239 247 472.455 247 471.671 247C470.943 247 470.159 247 469.319 247C468.535 247 467.751 247 466.967 247C466.855 247 466.743 246.972 466.631 246.916C466.519 246.86 466.435 246.804 466.379 246.748C466.323 246.636 466.267 246.524 466.211 246.412C466.211 246.3 466.239 246.188 466.295 246.076C467.247 242.156 468.227 238.236 469.235 234.316C470.243 230.34 471.223 226.392 472.175 222.472C473.183 218.552 474.163 214.604 475.115 210.628C475.619 208.836 476.039 207.24 476.375 205.84C476.711 204.384 476.991 203.208 477.215 202.312ZM500.063 201.388C501.967 201.388 503.563 201.724 504.851 202.396C506.195 203.012 507.259 203.936 508.043 205.168C508.827 206.344 509.275 207.716 509.387 209.284C509.555 210.796 509.415 212.448 508.967 214.24C508.295 216.872 507.651 219.448 507.035 221.968C506.419 224.488 505.775 227.008 505.103 229.528C504.487 231.992 503.843 234.568 503.171 237.256C503.003 237.872 502.947 238.404 503.003 238.852C503.059 239.3 503.199 239.636 503.423 239.86C503.647 240.028 503.899 240.168 504.179 240.28C504.515 240.336 504.879 240.364 505.271 240.364C505.439 240.364 505.579 240.364 505.691 240.364C505.859 240.364 505.999 240.364 506.111 240.364C506.279 240.364 506.419 240.364 506.531 240.364H507.791C507.567 241.316 507.343 242.268 507.119 243.22C506.895 244.172 506.671 245.124 506.447 246.076C506.391 246.412 506.251 246.664 506.027 246.832C505.803 246.944 505.551 247 505.271 247C504.991 247 504.515 247 503.843 247C503.171 247 502.583 247 502.079 247C500.063 247 498.467 246.58 497.291 245.74C496.115 244.844 495.359 243.64 495.023 242.128C494.687 240.616 494.771 238.852 495.275 236.836C495.891 234.428 496.479 232.048 497.039 229.696C497.655 227.344 498.243 224.992 498.803 222.64C499.419 220.232 500.035 217.768 500.651 215.248C501.211 213.008 501.099 211.356 500.315 210.292C499.587 209.228 498.383 208.696 496.703 208.696C495.471 208.696 494.211 208.92 492.923 209.368C491.691 209.76 490.375 210.376 488.975 211.216C487.631 212.056 486.175 213.176 484.607 214.576C483.095 215.92 481.471 217.516 479.735 219.364L481.667 209.788H484.775C486.343 208.052 487.939 206.568 489.563 205.336C491.187 204.048 492.867 203.068 494.603 202.396C496.395 201.724 498.215 201.388 500.063 201.388ZM539.762 201.388C541.834 201.388 543.654 201.724 545.222 202.396C546.846 203.068 548.246 203.964 549.422 205.084C550.598 206.204 551.606 207.492 552.446 208.948H554.966L552.866 216.34C550.906 213.484 549.002 211.468 547.154 210.292C545.306 209.116 543.15 208.528 540.686 208.528C538.894 208.528 537.27 208.892 535.814 209.62C534.358 210.292 533.126 211.412 532.118 212.98C531.11 214.492 530.27 216.536 529.598 219.112L527.33 228.268C526.77 230.396 526.574 232.216 526.742 233.728C526.966 235.184 527.47 236.304 528.254 237.088C528.814 237.648 529.514 238.068 530.354 238.348C531.194 238.572 532.146 238.684 533.21 238.684C535.058 238.684 536.85 238.32 538.586 237.592C540.378 236.864 542.17 235.716 543.962 234.148C545.754 232.524 547.63 230.424 549.59 227.848L547.238 238.264H544.886C543.822 239.776 542.562 241.12 541.106 242.296C539.706 243.416 538.11 244.312 536.318 244.984C534.582 245.656 532.678 245.992 530.606 245.992C528.254 245.992 526.21 245.572 524.474 244.732C522.794 243.892 521.45 242.688 520.442 241.12C519.49 239.552 518.902 237.676 518.678 235.492C518.51 233.308 518.762 230.872 519.434 228.184L521.954 218.02C522.738 215.052 523.69 212.504 524.81 210.376C525.93 208.248 527.218 206.54 528.674 205.252C530.186 203.908 531.866 202.928 533.714 202.312C535.562 201.696 537.578 201.388 539.762 201.388ZM555.386 202.312C556.562 202.312 557.71 202.312 558.83 202.312C559.95 202.312 561.07 202.312 562.19 202.312C562.414 202.312 562.582 202.368 562.694 202.48C562.806 202.536 562.862 202.62 562.862 202.732C562.918 202.844 562.918 203.012 562.862 203.236C561.91 206.988 560.986 210.572 560.09 213.988C559.25 217.404 558.41 220.792 557.57 224.152C556.73 227.456 555.862 230.816 554.966 234.232C554.07 237.648 553.146 241.232 552.194 244.984C550.962 249.8 549.254 253.552 547.07 256.24C544.886 258.984 542.142 260.916 538.838 262.036C535.534 263.212 531.698 263.8 527.33 263.8C524.922 263.8 522.738 263.604 520.778 263.212C518.874 262.82 517.306 262.344 516.074 261.784C514.842 261.28 514.03 260.804 513.638 260.356C513.582 260.244 513.554 260.104 513.554 259.936C513.498 259.824 513.498 259.684 513.554 259.516C513.778 258.508 514.002 257.612 514.226 256.828C514.45 256.1 514.73 255.204 515.066 254.14H516.326C517.558 254.812 518.762 255.344 519.938 255.736C521.114 256.184 522.374 256.492 523.718 256.66C525.062 256.828 526.546 256.912 528.17 256.912C530.69 256.912 532.902 256.604 534.806 255.988C536.766 255.372 538.474 254.364 539.93 252.964C540.658 252.236 541.302 251.424 541.862 250.528C542.478 249.688 543.038 248.68 543.542 247.504C544.102 246.384 544.55 245.068 544.886 243.556C545.894 239.692 546.818 236.136 547.658 232.888C548.498 229.584 549.338 226.28 550.178 222.976C551.018 219.672 551.914 216.088 552.866 212.224C553.202 211.104 553.51 210.012 553.79 208.948C554.07 207.828 554.35 206.736 554.63 205.672C554.91 204.552 555.162 203.432 555.386 202.312ZM585.258 240.448C589.01 240.448 591.754 239.916 593.49 238.852C595.226 237.732 596.318 236.304 596.766 234.568C597.046 233.448 597.074 232.468 596.85 231.628C596.626 230.788 596.038 230.06 595.086 229.444C594.134 228.772 592.706 228.212 590.802 227.764L584.418 226.252C581.618 225.636 579.378 224.74 577.698 223.564C576.074 222.332 574.982 220.876 574.422 219.196C573.918 217.46 573.918 215.528 574.422 213.4C574.982 211.328 575.822 209.564 576.942 208.108C578.118 206.596 579.574 205.364 581.31 204.412C583.046 203.404 585.034 202.676 587.274 202.228C589.57 201.78 592.118 201.556 594.918 201.556C597.606 201.556 599.986 201.752 602.058 202.144C604.13 202.536 605.81 202.984 607.098 203.488C608.386 203.992 609.142 204.384 609.366 204.664C609.422 204.72 609.45 204.804 609.45 204.916C609.506 205.028 609.534 205.14 609.534 205.252C609.534 205.308 609.506 205.392 609.45 205.504C609.17 206.624 608.89 207.66 608.61 208.612C608.386 209.564 608.162 210.572 607.938 211.636H606.594C605.362 211.076 604.102 210.6 602.814 210.208C601.582 209.76 600.238 209.424 598.782 209.2C597.326 208.976 595.702 208.864 593.91 208.864C591.67 208.864 589.71 209.06 588.03 209.452C586.35 209.844 585.006 210.46 583.998 211.3C583.046 212.084 582.402 213.064 582.066 214.24C581.786 215.248 581.73 216.144 581.898 216.928C582.122 217.712 582.654 218.412 583.494 219.028C584.334 219.588 585.622 220.092 587.358 220.54L594.078 221.968C596.99 222.528 599.286 223.508 600.966 224.908C602.646 226.252 603.738 227.848 604.242 229.696C604.802 231.488 604.83 233.448 604.326 235.576C603.542 238.432 602.282 240.756 600.546 242.548C598.866 244.34 596.626 245.684 593.826 246.58C591.082 247.42 587.694 247.84 583.662 247.84C581.31 247.84 579.126 247.644 577.11 247.252C575.094 246.916 573.33 246.496 571.818 245.992C570.362 245.488 569.13 244.956 568.122 244.396C567.114 243.78 566.414 243.276 566.022 242.884C565.966 242.772 565.91 242.66 565.854 242.548C565.854 242.436 565.882 242.296 565.938 242.128C566.218 240.784 566.47 239.636 566.694 238.684C566.974 237.676 567.198 236.696 567.366 235.744H568.71C569.83 236.528 570.95 237.228 572.07 237.844C573.246 238.404 574.478 238.88 575.766 239.272C577.11 239.664 578.538 239.972 580.05 240.196C581.618 240.364 583.354 240.448 585.258 240.448ZM645.873 202.312H671.745C671.913 202.312 672.053 202.368 672.165 202.48C672.277 202.536 672.361 202.648 672.417 202.816C672.473 202.928 672.473 203.068 672.417 203.236C672.137 204.356 671.857 205.42 671.577 206.428C671.353 207.38 671.101 208.416 670.821 209.536H645.033C644.865 209.536 644.697 209.508 644.529 209.452C644.417 209.34 644.333 209.228 644.277 209.116C644.277 208.948 644.305 208.78 644.361 208.612C644.585 207.492 644.809 206.456 645.033 205.504C645.313 204.496 645.593 203.432 645.873 202.312ZM650.745 246.076C650.689 246.412 650.549 246.664 650.325 246.832C650.157 246.944 649.905 247 649.569 247C648.393 247 647.245 247 646.125 247C645.061 247 643.941 247 642.765 247C643.101 245.656 643.437 244.284 643.773 242.884C644.165 241.428 644.557 239.972 644.949 238.516C645.789 234.932 646.629 231.46 647.469 228.1C648.365 224.74 649.205 221.436 649.989 218.188C650.773 214.884 651.585 211.636 652.425 208.444C653.265 205.196 654.105 201.892 654.945 198.532C655.673 195.732 656.597 193.352 657.717 191.392C658.837 189.376 660.153 187.752 661.665 186.52C663.233 185.232 664.941 184.308 666.789 183.748C668.637 183.132 670.597 182.824 672.669 182.824C674.237 182.824 675.581 182.908 676.701 183.076C677.877 183.244 678.829 183.468 679.557 183.748C680.285 184.028 680.789 184.308 681.069 184.588C681.181 184.644 681.237 184.756 681.237 184.924C681.237 185.036 681.209 185.176 681.153 185.344C680.929 186.296 680.705 187.22 680.481 188.116C680.257 189.012 680.033 189.964 679.809 190.972H678.465C677.905 190.692 677.289 190.468 676.617 190.3C676.001 190.076 675.301 189.936 674.517 189.88C673.733 189.768 672.809 189.712 671.745 189.712C670.569 189.712 669.505 189.908 668.553 190.3C667.601 190.636 666.761 191.168 666.033 191.896C665.137 192.736 664.381 193.828 663.765 195.172C663.149 196.46 662.617 198.028 662.169 199.876C661.497 202.62 660.769 205.588 659.985 208.78C659.201 211.972 658.389 215.22 657.549 218.524C656.765 221.828 655.953 225.104 655.113 228.352C654.329 231.6 653.573 234.736 652.845 237.76C652.117 240.784 651.417 243.556 650.745 246.076ZM699.181 201.388C702.149 201.388 704.725 201.892 706.909 202.9C709.093 203.852 710.857 205.196 712.201 206.932C713.601 208.668 714.497 210.74 714.889 213.148C715.281 215.5 715.141 218.104 714.469 220.96L712.369 229.444C711.417 233.476 709.961 236.864 708.001 239.608C706.097 242.296 703.661 244.368 700.693 245.824C697.781 247.224 694.309 247.924 690.277 247.924C687.197 247.924 684.509 247.448 682.213 246.496C679.973 245.488 678.153 244.116 676.753 242.38C675.409 240.588 674.513 238.516 674.065 236.164C673.673 233.756 673.841 231.152 674.569 228.352L676.669 219.784C677.733 215.752 679.217 212.392 681.121 209.704C683.081 206.96 685.545 204.888 688.513 203.488C691.537 202.088 695.093 201.388 699.181 201.388ZM698.173 208.108C695.765 208.108 693.637 208.556 691.789 209.452C689.941 210.348 688.401 211.664 687.169 213.4C685.937 215.136 684.985 217.236 684.313 219.7L682.045 228.856C681.597 230.592 681.429 232.356 681.541 234.148C681.653 235.94 682.297 237.452 683.473 238.684C684.201 239.468 685.181 240.084 686.413 240.532C687.645 240.924 689.129 241.12 690.865 241.12C693.329 241.12 695.457 240.672 697.249 239.776C699.041 238.824 700.525 237.48 701.701 235.744C702.933 234.008 703.857 231.936 704.473 229.528L706.825 220.456C707.329 218.664 707.497 216.872 707.329 215.08C707.217 213.232 706.545 211.692 705.313 210.46C704.585 209.732 703.633 209.172 702.457 208.78C701.337 208.332 699.909 208.108 698.173 208.108ZM738.377 209.788H741.149C742.213 207.94 743.361 206.4 744.593 205.168C745.825 203.88 747.197 202.956 748.709 202.396C750.221 201.78 751.873 201.472 753.665 201.472C755.009 201.472 756.101 201.612 756.941 201.892C757.781 202.172 758.341 202.452 758.621 202.732C758.733 202.844 758.817 202.984 758.873 203.152C758.985 203.264 759.013 203.404 758.957 203.572C758.789 204.132 758.621 204.692 758.453 205.252C758.341 205.812 758.201 206.344 758.033 206.848C757.921 207.352 757.781 207.884 757.613 208.444C757.501 209.004 757.361 209.592 757.193 210.208H755.849C755.289 209.984 754.645 209.788 753.917 209.62C753.189 209.396 752.237 209.284 751.061 209.284C749.269 209.284 747.561 209.62 745.937 210.292C744.369 210.964 742.745 212.168 741.065 213.904C739.385 215.584 737.565 217.908 735.605 220.876L738.377 209.788ZM730.397 247C729.613 247 728.773 247 727.877 247C727.037 247 726.169 247 725.273 247C724.433 247 723.621 247 722.837 247C722.725 247 722.613 247 722.501 247C722.389 246.944 722.305 246.888 722.249 246.832C722.193 246.72 722.137 246.608 722.081 246.496C722.081 246.384 722.109 246.244 722.165 246.076C722.277 245.74 722.557 244.704 723.005 242.968C723.453 241.176 723.985 238.964 724.601 236.332C725.273 233.644 725.973 230.788 726.701 227.764C727.485 224.684 728.241 221.66 728.969 218.692C729.753 215.668 730.453 212.98 731.069 210.628C731.517 208.836 731.909 207.24 732.245 205.84C732.637 204.384 732.917 203.208 733.085 202.312C733.981 202.312 734.877 202.312 735.773 202.312C736.669 202.312 737.537 202.312 738.377 202.312C739.217 202.312 740.001 202.312 740.729 202.312C740.897 202.312 741.037 202.34 741.149 202.396C741.261 202.452 741.345 202.564 741.401 202.732C741.457 202.844 741.457 203.012 741.401 203.236C741.065 204.636 740.561 206.596 739.889 209.116C739.273 211.58 738.573 214.38 737.789 217.516C737.005 220.596 736.193 223.872 735.353 227.344C734.513 230.816 733.645 234.232 732.749 237.592C731.909 240.952 731.125 244.088 730.397 247ZM830.861 227.68C830.077 230.928 828.929 233.756 827.417 236.164C825.905 238.572 824.057 240.588 821.873 242.212C819.689 243.836 817.141 245.04 814.229 245.824C811.317 246.608 808.069 247 804.485 247C803.141 247 801.713 247 800.201 247C798.745 247 797.261 247 795.749 247C794.293 247 792.893 247 791.549 247C790.261 247 789.085 247 788.021 247C786.957 247 786.117 247 785.501 247C785.277 247 785.081 246.944 784.913 246.832C784.801 246.664 784.773 246.412 784.829 246.076C785.893 241.82 786.957 237.508 788.021 233.14C789.141 228.772 790.233 224.376 791.297 219.952C792.417 215.472 793.537 210.992 794.657 206.512C795.777 202.032 796.925 197.524 798.101 192.988L806.501 193.072L805.577 194.248C805.297 195.48 805.017 196.684 804.737 197.86C804.513 199.036 804.261 200.212 803.981 201.388C803.197 204.636 802.385 207.856 801.545 211.048C800.761 214.24 799.977 217.46 799.193 220.708C798.409 223.9 797.625 227.092 796.841 230.284C796.057 233.42 795.245 236.612 794.405 239.86C795.357 239.86 796.421 239.86 797.597 239.86C798.829 239.86 800.117 239.86 801.461 239.86C802.805 239.86 804.149 239.86 805.493 239.86C808.797 239.86 811.625 239.44 813.977 238.6C816.385 237.76 818.345 236.444 819.857 234.652C821.369 232.86 822.489 230.508 823.217 227.596L827.669 209.536C828.173 207.632 828.453 205.952 828.509 204.496C828.565 202.984 828.425 201.696 828.089 200.632C827.753 199.512 827.193 198.588 826.409 197.86C825.849 197.188 825.037 196.684 823.973 196.348C822.965 195.956 821.733 195.676 820.277 195.508C818.877 195.284 817.225 195.172 815.321 195.172C813.697 195.172 811.933 195.172 810.029 195.172C808.181 195.172 806.277 195.172 804.317 195.172C802.413 195.172 800.537 195.172 798.689 195.172C796.841 195.172 795.105 195.172 793.481 195.172C793.313 195.172 793.145 195.144 792.977 195.088C792.865 195.032 792.781 194.92 792.725 194.752C792.725 194.584 792.753 194.416 792.809 194.248C793.033 193.184 793.257 192.176 793.481 191.224C793.761 190.272 794.013 189.264 794.237 188.2C795.973 188.2 797.793 188.2 799.697 188.2C801.657 188.2 803.673 188.2 805.745 188.2C807.873 188.2 810.001 188.2 812.129 188.2C814.313 188.2 816.469 188.2 818.597 188.2C821.845 188.2 824.701 188.648 827.165 189.544C829.629 190.384 831.617 191.728 833.129 193.576C834.641 195.424 835.593 197.804 835.985 200.716C836.377 203.628 836.041 207.156 834.977 211.3L830.861 227.68ZM868.105 201.388C870.961 201.388 873.425 201.808 875.497 202.648C877.625 203.488 879.333 204.608 880.621 206.008C881.965 207.408 882.833 209.06 883.225 210.964C883.617 212.812 883.533 214.772 882.973 216.844L882.637 218.104C882.021 220.568 880.957 222.612 879.445 224.236C877.933 225.86 876.029 227.064 873.733 227.848C871.493 228.632 868.861 229.024 865.837 229.024C864.605 229.024 863.093 229.024 861.301 229.024C859.565 229.024 857.661 229.024 855.589 229.024C853.517 229.024 851.417 229.024 849.289 229.024L846.097 229.444L847.189 223.648C849.541 223.648 851.781 223.648 853.909 223.648C856.093 223.648 858.165 223.648 860.125 223.648C862.141 223.648 864.045 223.648 865.837 223.648C868.413 223.648 870.513 223.144 872.137 222.136C873.817 221.072 874.909 219.448 875.413 217.264C875.805 215.752 875.889 214.38 875.665 213.148C875.441 211.916 874.909 210.908 874.069 210.124C873.397 209.396 872.473 208.836 871.297 208.444C870.121 208.052 868.665 207.856 866.929 207.856C864.577 207.856 862.449 208.276 860.545 209.116C858.697 209.956 857.073 211.272 855.673 213.064C854.329 214.856 853.293 217.236 852.565 220.204L850.297 229.36C849.737 231.432 849.569 233.224 849.793 234.736C850.017 236.248 850.577 237.48 851.473 238.432C852.369 239.44 853.601 240.168 855.169 240.616C856.737 241.064 858.669 241.288 860.965 241.288C863.037 241.288 864.885 241.176 866.509 240.952C868.133 240.728 869.645 240.392 871.045 239.944C872.501 239.496 874.041 238.936 875.665 238.264H876.925C876.701 239.104 876.449 240.028 876.169 241.036C875.889 241.988 875.637 242.912 875.413 243.808C875.357 243.92 875.301 244.032 875.245 244.144C875.189 244.256 875.105 244.368 874.993 244.48C874.377 245.096 873.369 245.684 871.969 246.244C870.569 246.748 868.861 247.14 866.845 247.42C864.885 247.756 862.729 247.924 860.377 247.924C857.017 247.924 854.077 247.504 851.557 246.664C849.037 245.768 846.993 244.48 845.425 242.8C843.857 241.12 842.849 239.076 842.401 236.668C841.953 234.26 842.093 231.516 842.821 228.436L845.089 219.616C845.929 216.312 847.105 213.512 848.617 211.216C850.129 208.864 851.893 206.988 853.909 205.588C855.981 204.132 858.221 203.068 860.629 202.396C863.037 201.724 865.529 201.388 868.105 201.388ZM895.412 202.312C897.652 202.312 899.864 202.312 902.048 202.312C904.288 202.312 906.5 202.312 908.684 202.312C908.908 202.312 909.076 202.368 909.188 202.48C909.3 202.536 909.356 202.62 909.356 202.732C909.412 202.844 909.412 203.012 909.356 203.236C908.46 206.876 907.564 210.516 906.668 214.156C905.772 217.74 904.848 221.352 903.896 224.992C903 228.632 902.104 232.272 901.208 235.912C901.096 236.36 900.956 236.836 900.788 237.34C900.676 237.788 900.564 238.264 900.452 238.768C900.34 239.216 900.228 239.692 900.116 240.196C900.564 240.364 901.096 240.504 901.712 240.616C902.328 240.672 903.112 240.7 904.064 240.7C907.144 240.7 909.916 240.168 912.38 239.104C914.844 238.04 916.944 236.416 918.68 234.232C920.416 232.048 921.704 229.304 922.544 226L923.72 221.464C924.336 219 924.7 216.76 924.812 214.744C924.924 212.728 924.756 210.824 924.308 209.032C923.86 207.184 923.132 205.392 922.124 203.656L922.46 202.312C923.468 202.312 924.476 202.312 925.484 202.312C926.492 202.312 927.528 202.312 928.592 202.312C928.872 202.312 929.068 202.34 929.18 202.396C929.348 202.452 929.488 202.564 929.6 202.732C930.384 203.628 931.028 205.056 931.532 207.016C932.036 208.92 932.316 211.132 932.372 213.652C932.484 216.172 932.204 218.776 931.532 221.464L930.356 226C929.348 229.808 927.976 233.084 926.24 235.828C924.504 238.572 922.46 240.84 920.108 242.632C917.756 244.368 915.18 245.656 912.38 246.496C909.636 247.336 906.724 247.756 903.644 247.756C900.228 247.756 897.484 247.42 895.412 246.748C893.34 246.02 892.08 245.46 891.632 245.068C891.464 244.9 891.38 244.76 891.38 244.648C891.38 244.48 891.408 244.256 891.464 243.976C892.192 241.064 892.92 238.152 893.648 235.24C894.376 232.328 895.104 229.444 895.832 226.588C896.56 223.732 897.288 220.848 898.016 217.936C898.744 215.024 899.472 212.112 900.2 209.2H898.856C898.128 209.2 897.4 209.2 896.672 209.2C896 209.2 895.328 209.2 894.656 209.2C894.376 209.2 894.18 209.116 894.068 208.948C893.956 208.78 893.928 208.556 893.984 208.276C894.152 207.492 894.376 206.568 894.656 205.504C894.936 204.384 895.188 203.32 895.412 202.312ZM965.558 201.388C968.414 201.388 970.878 201.808 972.95 202.648C975.078 203.488 976.786 204.608 978.074 206.008C979.418 207.408 980.286 209.06 980.678 210.964C981.07 212.812 980.986 214.772 980.426 216.844L980.09 218.104C979.474 220.568 978.41 222.612 976.898 224.236C975.386 225.86 973.482 227.064 971.186 227.848C968.946 228.632 966.314 229.024 963.29 229.024C962.058 229.024 960.546 229.024 958.754 229.024C957.018 229.024 955.114 229.024 953.042 229.024C950.97 229.024 948.87 229.024 946.742 229.024L943.55 229.444L944.642 223.648C946.994 223.648 949.234 223.648 951.362 223.648C953.546 223.648 955.618 223.648 957.578 223.648C959.594 223.648 961.498 223.648 963.29 223.648C965.866 223.648 967.966 223.144 969.59 222.136C971.27 221.072 972.362 219.448 972.866 217.264C973.258 215.752 973.342 214.38 973.118 213.148C972.894 211.916 972.362 210.908 971.522 210.124C970.85 209.396 969.926 208.836 968.75 208.444C967.574 208.052 966.118 207.856 964.382 207.856C962.03 207.856 959.902 208.276 957.998 209.116C956.15 209.956 954.526 211.272 953.126 213.064C951.782 214.856 950.746 217.236 950.018 220.204L947.75 229.36C947.19 231.432 947.022 233.224 947.246 234.736C947.47 236.248 948.03 237.48 948.926 238.432C949.822 239.44 951.054 240.168 952.622 240.616C954.19 241.064 956.122 241.288 958.418 241.288C960.49 241.288 962.338 241.176 963.962 240.952C965.586 240.728 967.098 240.392 968.498 239.944C969.954 239.496 971.494 238.936 973.118 238.264H974.378C974.154 239.104 973.902 240.028 973.622 241.036C973.342 241.988 973.09 242.912 972.866 243.808C972.81 243.92 972.754 244.032 972.698 244.144C972.642 244.256 972.558 244.368 972.446 244.48C971.83 245.096 970.822 245.684 969.422 246.244C968.022 246.748 966.314 247.14 964.298 247.42C962.338 247.756 960.182 247.924 957.83 247.924C954.47 247.924 951.53 247.504 949.01 246.664C946.49 245.768 944.446 244.48 942.878 242.8C941.31 241.12 940.302 239.076 939.854 236.668C939.406 234.26 939.546 231.516 940.274 228.436L942.542 219.616C943.382 216.312 944.558 213.512 946.07 211.216C947.582 208.864 949.346 206.988 951.362 205.588C953.434 204.132 955.674 203.068 958.082 202.396C960.49 201.724 962.982 201.388 965.558 201.388ZM1001.98 193.24C1002.32 191.784 1002.68 190.272 1003.07 188.704C1003.52 187.08 1003.94 185.512 1004.33 184C1004.78 184 1005.23 184 1005.68 184C1006.13 184 1006.57 184 1007.02 184C1007.47 184 1007.92 184 1008.37 184C1008.81 184 1009.26 184 1009.71 184C1010.16 184 1010.61 184 1011.05 184C1011.28 184 1011.45 184.056 1011.56 184.168C1011.67 184.224 1011.73 184.308 1011.73 184.42C1011.78 184.532 1011.78 184.7 1011.73 184.924C1010.94 188.228 1010.13 191.56 1009.29 194.92C1008.45 198.224 1007.61 201.528 1006.77 204.832C1005.99 208.136 1005.15 211.468 1004.25 214.828C1003.41 218.188 1002.57 221.52 1001.73 224.824C1000.95 228.128 1000.13 231.432 999.294 234.736C999.07 235.688 998.958 236.5 998.958 237.172C999.014 237.788 999.154 238.292 999.378 238.684C999.714 239.076 1000.16 239.356 1000.72 239.524C1001.28 239.692 1001.98 239.776 1002.82 239.776C1003.05 239.776 1003.27 239.776 1003.49 239.776C1003.72 239.776 1003.94 239.776 1004.17 239.776C1004.45 239.776 1004.7 239.776 1004.92 239.776C1005.15 239.776 1005.37 239.776 1005.59 239.776H1006.94C1006.66 240.84 1006.38 241.904 1006.1 242.968C1005.82 243.976 1005.57 245.012 1005.34 246.076C1005.29 246.412 1005.12 246.664 1004.84 246.832C1004.61 246.944 1004.39 247 1004.17 247C1003.89 247 1003.58 247 1003.24 247C1002.91 247 1002.54 247 1002.15 247C1001.81 247 1001.48 247 1001.14 247C1000.86 247 1000.58 247 1000.3 247C998.566 247 997.026 246.776 995.682 246.328C994.338 245.88 993.246 245.18 992.406 244.228C991.622 243.276 991.146 242.072 990.978 240.616C990.81 239.104 990.978 237.284 991.482 235.156C992.378 231.684 993.246 228.212 994.086 224.74C994.982 221.268 995.85 217.768 996.69 214.24C997.586 210.712 998.454 207.212 999.294 203.74C1000.19 200.268 1001.09 196.768 1001.98 193.24ZM1044.37 201.388C1047.34 201.388 1049.91 201.892 1052.1 202.9C1054.28 203.852 1056.04 205.196 1057.39 206.932C1058.79 208.668 1059.68 210.74 1060.08 213.148C1060.47 215.5 1060.33 218.104 1059.66 220.96L1057.56 229.444C1056.6 233.476 1055.15 236.864 1053.19 239.608C1051.28 242.296 1048.85 244.368 1045.88 245.824C1042.97 247.224 1039.5 247.924 1035.46 247.924C1032.38 247.924 1029.7 247.448 1027.4 246.496C1025.16 245.488 1023.34 244.116 1021.94 242.38C1020.6 240.588 1019.7 238.516 1019.25 236.164C1018.86 233.756 1019.03 231.152 1019.76 228.352L1021.86 219.784C1022.92 215.752 1024.4 212.392 1026.31 209.704C1028.27 206.96 1030.73 204.888 1033.7 203.488C1036.72 202.088 1040.28 201.388 1044.37 201.388ZM1043.36 208.108C1040.95 208.108 1038.82 208.556 1036.98 209.452C1035.13 210.348 1033.59 211.664 1032.36 213.4C1031.12 215.136 1030.17 217.236 1029.5 219.7L1027.23 228.856C1026.78 230.592 1026.62 232.356 1026.73 234.148C1026.84 235.94 1027.48 237.452 1028.66 238.684C1029.39 239.468 1030.37 240.084 1031.6 240.532C1032.83 240.924 1034.32 241.12 1036.05 241.12C1038.52 241.12 1040.64 240.672 1042.44 239.776C1044.23 238.824 1045.71 237.48 1046.89 235.744C1048.12 234.008 1049.04 231.936 1049.66 229.528L1052.01 220.456C1052.52 218.664 1052.68 216.872 1052.52 215.08C1052.4 213.232 1051.73 211.692 1050.5 210.46C1049.77 209.732 1048.82 209.172 1047.64 208.78C1046.52 208.332 1045.1 208.108 1043.36 208.108ZM1078.44 202.312C1079.22 202.312 1079.98 202.312 1080.71 202.312C1081.49 202.312 1082.28 202.312 1083.06 202.312C1083.84 202.312 1084.6 202.312 1085.33 202.312C1085.55 202.312 1085.72 202.368 1085.83 202.48C1085.94 202.536 1086 202.648 1086 202.816C1086.06 202.928 1086.06 203.068 1086 203.236C1084.77 208.276 1083.51 213.316 1082.22 218.356C1080.93 223.396 1079.64 228.464 1078.36 233.56C1077.12 238.6 1075.86 243.64 1074.58 248.68C1073.34 253.72 1072.08 258.76 1070.8 263.8C1070.01 263.8 1069.23 263.8 1068.44 263.8C1067.72 263.8 1066.96 263.8 1066.18 263.8C1065.39 263.8 1064.61 263.8 1063.82 263.8C1063.66 263.8 1063.52 263.744 1063.4 263.632C1063.29 263.576 1063.21 263.464 1063.15 263.296C1063.1 263.184 1063.1 263.016 1063.15 262.792C1064.27 258.48 1065.36 254.14 1066.43 249.772C1067.55 245.46 1068.64 241.148 1069.7 236.836C1070.82 232.468 1071.92 228.128 1072.98 223.816C1074.1 219.448 1075.22 215.108 1076.34 210.796C1076.68 209.34 1077.01 207.912 1077.35 206.512C1077.68 205.112 1078.05 203.712 1078.44 202.312ZM1099.52 201.388C1102.83 201.388 1105.46 202.172 1107.42 203.74C1109.44 205.308 1110.75 207.464 1111.37 210.208C1111.98 212.952 1111.84 216.06 1110.95 219.532L1108.18 230.704C1107.45 233.784 1106.5 236.416 1105.32 238.6C1104.2 240.784 1102.88 242.548 1101.37 243.892C1099.92 245.236 1098.26 246.244 1096.42 246.916C1094.57 247.532 1092.61 247.84 1090.54 247.84C1088.41 247.84 1086.53 247.532 1084.91 246.916C1083.28 246.3 1081.88 245.46 1080.71 244.396C1079.59 243.276 1078.64 241.988 1077.85 240.532H1075.58L1077.43 232.888C1079.34 235.744 1081.18 237.788 1082.98 239.02C1084.77 240.196 1086.9 240.784 1089.36 240.784C1091.21 240.784 1092.83 240.42 1094.23 239.692C1095.63 238.964 1096.86 237.816 1097.93 236.248C1098.99 234.68 1099.83 232.664 1100.45 230.2L1103.22 219.112C1103.78 216.928 1103.95 215.108 1103.72 213.652C1103.56 212.196 1103.05 211.076 1102.21 210.292C1101.65 209.732 1100.92 209.312 1100.03 209.032C1099.19 208.752 1098.15 208.612 1096.92 208.612C1095.3 208.612 1093.62 209.004 1091.88 209.788C1090.2 210.516 1088.44 211.692 1086.59 213.316C1084.8 214.884 1082.89 217.012 1080.88 219.7L1083.56 209.2H1085.83C1087.06 207.688 1088.35 206.344 1089.7 205.168C1091.1 203.992 1092.61 203.068 1094.23 202.396C1095.91 201.724 1097.68 201.388 1099.52 201.388ZM1146.03 201.388C1148.88 201.388 1151.35 201.808 1153.42 202.648C1155.55 203.488 1157.26 204.608 1158.54 206.008C1159.89 207.408 1160.76 209.06 1161.15 210.964C1161.54 212.812 1161.46 214.772 1160.9 216.844L1160.56 218.104C1159.94 220.568 1158.88 222.612 1157.37 224.236C1155.86 225.86 1153.95 227.064 1151.66 227.848C1149.42 228.632 1146.78 229.024 1143.76 229.024C1142.53 229.024 1141.02 229.024 1139.22 229.024C1137.49 229.024 1135.58 229.024 1133.51 229.024C1131.44 229.024 1129.34 229.024 1127.21 229.024L1124.02 229.444L1125.11 223.648C1127.46 223.648 1129.7 223.648 1131.83 223.648C1134.02 223.648 1136.09 223.648 1138.05 223.648C1140.06 223.648 1141.97 223.648 1143.76 223.648C1146.34 223.648 1148.44 223.144 1150.06 222.136C1151.74 221.072 1152.83 219.448 1153.34 217.264C1153.73 215.752 1153.81 214.38 1153.59 213.148C1153.36 211.916 1152.83 210.908 1151.99 210.124C1151.32 209.396 1150.4 208.836 1149.22 208.444C1148.04 208.052 1146.59 207.856 1144.85 207.856C1142.5 207.856 1140.37 208.276 1138.47 209.116C1136.62 209.956 1135 211.272 1133.6 213.064C1132.25 214.856 1131.22 217.236 1130.49 220.204L1128.22 229.36C1127.66 231.432 1127.49 233.224 1127.72 234.736C1127.94 236.248 1128.5 237.48 1129.4 238.432C1130.29 239.44 1131.52 240.168 1133.09 240.616C1134.66 241.064 1136.59 241.288 1138.89 241.288C1140.96 241.288 1142.81 241.176 1144.43 240.952C1146.06 240.728 1147.57 240.392 1148.97 239.944C1150.42 239.496 1151.96 238.936 1153.59 238.264H1154.85C1154.62 239.104 1154.37 240.028 1154.09 241.036C1153.81 241.988 1153.56 242.912 1153.34 243.808C1153.28 243.92 1153.22 244.032 1153.17 244.144C1153.11 244.256 1153.03 244.368 1152.92 244.48C1152.3 245.096 1151.29 245.684 1149.89 246.244C1148.49 246.748 1146.78 247.14 1144.77 247.42C1142.81 247.756 1140.65 247.924 1138.3 247.924C1134.94 247.924 1132 247.504 1129.48 246.664C1126.96 245.768 1124.92 244.48 1123.35 242.8C1121.78 241.12 1120.77 239.076 1120.32 236.668C1119.88 234.26 1120.02 231.516 1120.74 228.436L1123.01 219.616C1123.85 216.312 1125.03 213.512 1126.54 211.216C1128.05 208.864 1129.82 206.988 1131.83 205.588C1133.9 204.132 1136.14 203.068 1138.55 202.396C1140.96 201.724 1143.45 201.388 1146.03 201.388ZM1184.3 209.788H1187.07C1188.13 207.94 1189.28 206.4 1190.51 205.168C1191.75 203.88 1193.12 202.956 1194.63 202.396C1196.14 201.78 1197.79 201.472 1199.59 201.472C1200.93 201.472 1202.02 201.612 1202.86 201.892C1203.7 202.172 1204.26 202.452 1204.54 202.732C1204.65 202.844 1204.74 202.984 1204.79 203.152C1204.91 203.264 1204.93 203.404 1204.88 203.572C1204.71 204.132 1204.54 204.692 1204.37 205.252C1204.26 205.812 1204.12 206.344 1203.95 206.848C1203.84 207.352 1203.7 207.884 1203.53 208.444C1203.42 209.004 1203.28 209.592 1203.11 210.208H1201.77C1201.21 209.984 1200.57 209.788 1199.84 209.62C1199.11 209.396 1198.16 209.284 1196.98 209.284C1195.19 209.284 1193.48 209.62 1191.86 210.292C1190.29 210.964 1188.67 212.168 1186.99 213.904C1185.31 215.584 1183.49 217.908 1181.53 220.876L1184.3 209.788ZM1176.32 247C1175.53 247 1174.69 247 1173.8 247C1172.96 247 1172.09 247 1171.19 247C1170.35 247 1169.54 247 1168.76 247C1168.65 247 1168.53 247 1168.42 247C1168.31 246.944 1168.23 246.888 1168.17 246.832C1168.11 246.72 1168.06 246.608 1168 246.496C1168 246.384 1168.03 246.244 1168.09 246.076C1168.2 245.74 1168.48 244.704 1168.93 242.968C1169.37 241.176 1169.91 238.964 1170.52 236.332C1171.19 233.644 1171.89 230.788 1172.62 227.764C1173.41 224.684 1174.16 221.66 1174.89 218.692C1175.67 215.668 1176.37 212.98 1176.99 210.628C1177.44 208.836 1177.83 207.24 1178.17 205.84C1178.56 204.384 1178.84 203.208 1179.01 202.312C1179.9 202.312 1180.8 202.312 1181.69 202.312C1182.59 202.312 1183.46 202.312 1184.3 202.312C1185.14 202.312 1185.92 202.312 1186.65 202.312C1186.82 202.312 1186.96 202.34 1187.07 202.396C1187.18 202.452 1187.27 202.564 1187.32 202.732C1187.38 202.844 1187.38 203.012 1187.32 203.236C1186.99 204.636 1186.48 206.596 1185.81 209.116C1185.19 211.58 1184.49 214.38 1183.71 217.516C1182.93 220.596 1182.11 223.872 1181.27 227.344C1180.43 230.816 1179.57 234.232 1178.67 237.592C1177.83 240.952 1177.05 244.088 1176.32 247ZM1222.72 240.448C1226.47 240.448 1229.22 239.916 1230.95 238.852C1232.69 237.732 1233.78 236.304 1234.23 234.568C1234.51 233.448 1234.54 232.468 1234.31 231.628C1234.09 230.788 1233.5 230.06 1232.55 229.444C1231.6 228.772 1230.17 228.212 1228.27 227.764L1221.88 226.252C1219.08 225.636 1216.84 224.74 1215.16 223.564C1213.54 222.332 1212.45 220.876 1211.89 219.196C1211.38 217.46 1211.38 215.528 1211.89 213.4C1212.45 211.328 1213.29 209.564 1214.41 208.108C1215.58 206.596 1217.04 205.364 1218.77 204.412C1220.51 203.404 1222.5 202.676 1224.74 202.228C1227.03 201.78 1229.58 201.556 1232.38 201.556C1235.07 201.556 1237.45 201.752 1239.52 202.144C1241.59 202.536 1243.27 202.984 1244.56 203.488C1245.85 203.992 1246.61 204.384 1246.83 204.664C1246.89 204.72 1246.91 204.804 1246.91 204.916C1246.97 205.028 1247 205.14 1247 205.252C1247 205.308 1246.97 205.392 1246.91 205.504C1246.63 206.624 1246.35 207.66 1246.07 208.612C1245.85 209.564 1245.63 210.572 1245.4 211.636H1244.06C1242.83 211.076 1241.57 210.6 1240.28 210.208C1239.05 209.76 1237.7 209.424 1236.25 209.2C1234.79 208.976 1233.17 208.864 1231.37 208.864C1229.13 208.864 1227.17 209.06 1225.49 209.452C1223.81 209.844 1222.47 210.46 1221.46 211.3C1220.51 212.084 1219.87 213.064 1219.53 214.24C1219.25 215.248 1219.19 216.144 1219.36 216.928C1219.59 217.712 1220.12 218.412 1220.96 219.028C1221.8 219.588 1223.09 220.092 1224.82 220.54L1231.54 221.968C1234.45 222.528 1236.75 223.508 1238.43 224.908C1240.11 226.252 1241.2 227.848 1241.71 229.696C1242.27 231.488 1242.29 233.448 1241.79 235.576C1241.01 238.432 1239.75 240.756 1238.01 242.548C1236.33 244.34 1234.09 245.684 1231.29 246.58C1228.55 247.42 1225.16 247.84 1221.13 247.84C1218.77 247.84 1216.59 247.644 1214.57 247.252C1212.56 246.916 1210.79 246.496 1209.28 245.992C1207.83 245.488 1206.59 244.956 1205.59 244.396C1204.58 243.78 1203.88 243.276 1203.49 242.884C1203.43 242.772 1203.37 242.66 1203.32 242.548C1203.32 242.436 1203.35 242.296 1203.4 242.128C1203.68 240.784 1203.93 239.636 1204.16 238.684C1204.44 237.676 1204.66 236.696 1204.83 235.744H1206.17C1207.29 236.528 1208.41 237.228 1209.53 237.844C1210.71 238.404 1211.94 238.88 1213.23 239.272C1214.57 239.664 1216 239.972 1217.51 240.196C1219.08 240.364 1220.82 240.448 1222.72 240.448Z" fill="#FF7575"/>
<path d="M383.29 309.53C383.29 307.49 383.75 305.66 384.67 304.04C385.59 302.4 386.84 301.12 388.42 300.2C390.02 299.28 391.79 298.82 393.73 298.82C396.01 298.82 398 299.37 399.7 300.47C401.4 301.57 402.64 303.13 403.42 305.15H400.15C399.57 303.89 398.73 302.92 397.63 302.24C396.55 301.56 395.25 301.22 393.73 301.22C392.27 301.22 390.96 301.56 389.8 302.24C388.64 302.92 387.73 303.89 387.07 305.15C386.41 306.39 386.08 307.85 386.08 309.53C386.08 311.19 386.41 312.65 387.07 313.91C387.73 315.15 388.64 316.11 389.8 316.79C390.96 317.47 392.27 317.81 393.73 317.81C395.25 317.81 396.55 317.48 397.63 316.82C398.73 316.14 399.57 315.17 400.15 313.91H403.42C402.64 315.91 401.4 317.46 399.7 318.56C398 319.64 396.01 320.18 393.73 320.18C391.79 320.18 390.02 319.73 388.42 318.83C386.84 317.91 385.59 316.64 384.67 315.02C383.75 313.4 383.29 311.57 383.29 309.53ZM422.064 303.56V320H419.334V317.57C418.814 318.41 418.084 319.07 417.144 319.55C416.224 320.01 415.204 320.24 414.084 320.24C412.804 320.24 411.654 319.98 410.634 319.46C409.614 318.92 408.804 318.12 408.204 317.06C407.624 316 407.334 314.71 407.334 313.19V303.56H410.034V312.83C410.034 314.45 410.444 315.7 411.264 316.58C412.084 317.44 413.204 317.87 414.624 317.87C416.084 317.87 417.234 317.42 418.074 316.52C418.914 315.62 419.334 314.31 419.334 312.59V303.56H422.064ZM429.403 306.23C429.883 305.29 430.563 304.56 431.443 304.04C432.343 303.52 433.433 303.26 434.713 303.26V306.08H433.993C430.933 306.08 429.403 307.74 429.403 311.06V320H426.673V303.56H429.403V306.23ZM436.845 311.72C436.845 310.04 437.185 308.57 437.865 307.31C438.545 306.03 439.475 305.04 440.655 304.34C441.855 303.64 443.185 303.29 444.645 303.29C446.085 303.29 447.335 303.6 448.395 304.22C449.455 304.84 450.245 305.62 450.765 306.56V303.56H453.525V320H450.765V316.94C450.225 317.9 449.415 318.7 448.335 319.34C447.275 319.96 446.035 320.27 444.615 320.27C443.155 320.27 441.835 319.91 440.655 319.19C439.475 318.47 438.545 317.46 437.865 316.16C437.185 314.86 436.845 313.38 436.845 311.72ZM450.765 311.75C450.765 310.51 450.515 309.43 450.015 308.51C449.515 307.59 448.835 306.89 447.975 306.41C447.135 305.91 446.205 305.66 445.185 305.66C444.165 305.66 443.235 305.9 442.395 306.38C441.555 306.86 440.885 307.56 440.385 308.48C439.885 309.4 439.635 310.48 439.635 311.72C439.635 312.98 439.885 314.08 440.385 315.02C440.885 315.94 441.555 316.65 442.395 317.15C443.235 317.63 444.165 317.87 445.185 317.87C446.205 317.87 447.135 317.63 447.975 317.15C448.835 316.65 449.515 315.94 450.015 315.02C450.515 314.08 450.765 312.99 450.765 311.75ZM461.468 305.81V315.5C461.468 316.3 461.638 316.87 461.978 317.21C462.318 317.53 462.908 317.69 463.748 317.69H465.758V320H463.298C461.778 320 460.638 319.65 459.878 318.95C459.118 318.25 458.738 317.1 458.738 315.5V305.81H456.608V303.56H458.738V299.42H461.468V303.56H465.758V305.81H461.468ZM484.066 311.15C484.066 311.67 484.036 312.22 483.976 312.8H470.836C470.936 314.42 471.486 315.69 472.486 316.61C473.506 317.51 474.736 317.96 476.176 317.96C477.356 317.96 478.336 317.69 479.116 317.15C479.916 316.59 480.476 315.85 480.796 314.93H483.736C483.296 316.51 482.416 317.8 481.096 318.8C479.776 319.78 478.136 320.27 476.176 320.27C474.616 320.27 473.216 319.92 471.976 319.22C470.756 318.52 469.796 317.53 469.096 316.25C468.396 314.95 468.046 313.45 468.046 311.75C468.046 310.05 468.386 308.56 469.066 307.28C469.746 306 470.696 305.02 471.916 304.34C473.156 303.64 474.576 303.29 476.176 303.29C477.736 303.29 479.116 303.63 480.316 304.31C481.516 304.99 482.436 305.93 483.076 307.13C483.736 308.31 484.066 309.65 484.066 311.15ZM481.246 310.58C481.246 309.54 481.016 308.65 480.556 307.91C480.096 307.15 479.466 306.58 478.666 306.2C477.886 305.8 477.016 305.6 476.056 305.6C474.676 305.6 473.496 306.04 472.516 306.92C471.556 307.8 471.006 309.02 470.866 310.58H481.246ZM486.649 311.72C486.649 310.04 486.989 308.57 487.669 307.31C488.349 306.03 489.279 305.04 490.459 304.34C491.659 303.64 492.999 303.29 494.479 303.29C495.759 303.29 496.949 303.59 498.049 304.19C499.149 304.77 499.989 305.54 500.569 306.5V297.8H503.329V320H500.569V316.91C500.029 317.89 499.229 318.7 498.169 319.34C497.109 319.96 495.869 320.27 494.449 320.27C492.989 320.27 491.659 319.91 490.459 319.19C489.279 318.47 488.349 317.46 487.669 316.16C486.989 314.86 486.649 313.38 486.649 311.72ZM500.569 311.75C500.569 310.51 500.319 309.43 499.819 308.51C499.319 307.59 498.639 306.89 497.779 306.41C496.939 305.91 496.009 305.66 494.989 305.66C493.969 305.66 493.039 305.9 492.199 306.38C491.359 306.86 490.689 307.56 490.189 308.48C489.689 309.4 489.439 310.48 489.439 311.72C489.439 312.98 489.689 314.08 490.189 315.02C490.689 315.94 491.359 316.65 492.199 317.15C493.039 317.63 493.969 317.87 494.989 317.87C496.009 317.87 496.939 317.63 497.779 317.15C498.639 316.65 499.319 315.94 499.819 315.02C500.319 314.08 500.569 312.99 500.569 311.75ZM514.921 311.75C514.921 310.05 515.261 308.57 515.941 307.31C516.621 306.03 517.561 305.04 518.761 304.34C519.981 303.64 521.371 303.29 522.931 303.29C524.951 303.29 526.611 303.78 527.911 304.76C529.231 305.74 530.101 307.1 530.521 308.84H527.581C527.301 307.84 526.751 307.05 525.931 306.47C525.131 305.89 524.131 305.6 522.931 305.6C521.371 305.6 520.111 306.14 519.151 307.22C518.191 308.28 517.711 309.79 517.711 311.75C517.711 313.73 518.191 315.26 519.151 316.34C520.111 317.42 521.371 317.96 522.931 317.96C524.131 317.96 525.131 317.68 525.931 317.12C526.731 316.56 527.281 315.76 527.581 314.72H530.521C530.081 316.4 529.201 317.75 527.881 318.77C526.561 319.77 524.911 320.27 522.931 320.27C521.371 320.27 519.981 319.92 518.761 319.22C517.561 318.52 516.621 317.53 515.941 316.25C515.261 314.97 514.921 313.47 514.921 311.75ZM541.334 320.27C539.794 320.27 538.394 319.92 537.134 319.22C535.894 318.52 534.914 317.53 534.194 316.25C533.494 314.95 533.144 313.45 533.144 311.75C533.144 310.07 533.504 308.59 534.224 307.31C534.964 306.01 535.964 305.02 537.224 304.34C538.484 303.64 539.894 303.29 541.454 303.29C543.014 303.29 544.424 303.64 545.684 304.34C546.944 305.02 547.934 306 548.654 307.28C549.394 308.56 549.764 310.05 549.764 311.75C549.764 313.45 549.384 314.95 548.624 316.25C547.884 317.53 546.874 318.52 545.594 319.22C544.314 319.92 542.894 320.27 541.334 320.27ZM541.334 317.87C542.314 317.87 543.234 317.64 544.094 317.18C544.954 316.72 545.644 316.03 546.164 315.11C546.704 314.19 546.974 313.07 546.974 311.75C546.974 310.43 546.714 309.31 546.194 308.39C545.674 307.47 544.994 306.79 544.154 306.35C543.314 305.89 542.404 305.66 541.424 305.66C540.424 305.66 539.504 305.89 538.664 306.35C537.844 306.79 537.184 307.47 536.684 308.39C536.184 309.31 535.934 310.43 535.934 311.75C535.934 313.09 536.174 314.22 536.654 315.14C537.154 316.06 537.814 316.75 538.634 317.21C539.454 317.65 540.354 317.87 541.334 317.87ZM556.083 297.8V320H553.353V297.8H556.083ZM563.466 297.8V320H560.736V297.8H563.466ZM583.119 311.15C583.119 311.67 583.089 312.22 583.029 312.8H569.889C569.989 314.42 570.539 315.69 571.539 316.61C572.559 317.51 573.789 317.96 575.229 317.96C576.409 317.96 577.389 317.69 578.169 317.15C578.969 316.59 579.529 315.85 579.849 314.93H582.789C582.349 316.51 581.469 317.8 580.149 318.8C578.829 319.78 577.189 320.27 575.229 320.27C573.669 320.27 572.269 319.92 571.029 319.22C569.809 318.52 568.849 317.53 568.149 316.25C567.449 314.95 567.099 313.45 567.099 311.75C567.099 310.05 567.439 308.56 568.119 307.28C568.799 306 569.749 305.02 570.969 304.34C572.209 303.64 573.629 303.29 575.229 303.29C576.789 303.29 578.169 303.63 579.369 304.31C580.569 304.99 581.489 305.93 582.129 307.13C582.789 308.31 583.119 309.65 583.119 311.15ZM580.299 310.58C580.299 309.54 580.069 308.65 579.609 307.91C579.149 307.15 578.519 306.58 577.719 306.2C576.939 305.8 576.069 305.6 575.109 305.6C573.729 305.6 572.549 306.04 571.569 306.92C570.609 307.8 570.059 309.02 569.919 310.58H580.299ZM585.702 311.75C585.702 310.05 586.042 308.57 586.722 307.31C587.402 306.03 588.342 305.04 589.542 304.34C590.762 303.64 592.152 303.29 593.712 303.29C595.732 303.29 597.392 303.78 598.692 304.76C600.012 305.74 600.882 307.1 601.302 308.84H598.362C598.082 307.84 597.532 307.05 596.712 306.47C595.912 305.89 594.912 305.6 593.712 305.6C592.152 305.6 590.892 306.14 589.932 307.22C588.972 308.28 588.492 309.79 588.492 311.75C588.492 313.73 588.972 315.26 589.932 316.34C590.892 317.42 592.152 317.96 593.712 317.96C594.912 317.96 595.912 317.68 596.712 317.12C597.512 316.56 598.062 315.76 598.362 314.72H601.302C600.862 316.4 599.982 317.75 598.662 318.77C597.342 319.77 595.692 320.27 593.712 320.27C592.152 320.27 590.762 319.92 589.542 319.22C588.342 318.52 587.402 317.53 586.722 316.25C586.042 314.97 585.702 313.47 585.702 311.75ZM608.275 305.81V315.5C608.275 316.3 608.445 316.87 608.785 317.21C609.125 317.53 609.715 317.69 610.555 317.69H612.565V320H610.105C608.585 320 607.445 319.65 606.685 318.95C605.925 318.25 605.545 317.1 605.545 315.5V305.81H603.415V303.56H605.545V299.42H608.275V303.56H612.565V305.81H608.275ZM617.283 300.89C616.763 300.89 616.323 300.71 615.963 300.35C615.603 299.99 615.423 299.55 615.423 299.03C615.423 298.51 615.603 298.07 615.963 297.71C616.323 297.35 616.763 297.17 617.283 297.17C617.783 297.17 618.203 297.35 618.543 297.71C618.903 298.07 619.083 298.51 619.083 299.03C619.083 299.55 618.903 299.99 618.543 300.35C618.203 300.71 617.783 300.89 617.283 300.89ZM618.603 303.56V320H615.873V303.56H618.603ZM630.425 320.27C628.885 320.27 627.485 319.92 626.225 319.22C624.985 318.52 624.005 317.53 623.285 316.25C622.585 314.95 622.235 313.45 622.235 311.75C622.235 310.07 622.595 308.59 623.315 307.31C624.055 306.01 625.055 305.02 626.315 304.34C627.575 303.64 628.985 303.29 630.545 303.29C632.105 303.29 633.515 303.64 634.775 304.34C636.035 305.02 637.025 306 637.745 307.28C638.485 308.56 638.855 310.05 638.855 311.75C638.855 313.45 638.475 314.95 637.715 316.25C636.975 317.53 635.965 318.52 634.685 319.22C633.405 319.92 631.985 320.27 630.425 320.27ZM630.425 317.87C631.405 317.87 632.325 317.64 633.185 317.18C634.045 316.72 634.735 316.03 635.255 315.11C635.795 314.19 636.065 313.07 636.065 311.75C636.065 310.43 635.805 309.31 635.285 308.39C634.765 307.47 634.085 306.79 633.245 306.35C632.405 305.89 631.495 305.66 630.515 305.66C629.515 305.66 628.595 305.89 627.755 306.35C626.935 306.79 626.275 307.47 625.775 308.39C625.275 309.31 625.025 310.43 625.025 311.75C625.025 313.09 625.265 314.22 625.745 315.14C626.245 316.06 626.905 316.75 627.725 317.21C628.545 317.65 629.445 317.87 630.425 317.87ZM650.455 303.26C652.455 303.26 654.075 303.87 655.315 305.09C656.555 306.29 657.175 308.03 657.175 310.31V320H654.475V310.7C654.475 309.06 654.065 307.81 653.245 306.95C652.425 306.07 651.305 305.63 649.885 305.63C648.445 305.63 647.295 306.08 646.435 306.98C645.595 307.88 645.175 309.19 645.175 310.91V320H642.445V303.56H645.175V305.9C645.715 305.06 646.445 304.41 647.365 303.95C648.305 303.49 649.335 303.26 650.455 303.26ZM676.802 320.27C675.262 320.27 673.862 319.92 672.602 319.22C671.362 318.52 670.382 317.53 669.662 316.25C668.962 314.95 668.612 313.45 668.612 311.75C668.612 310.07 668.972 308.59 669.692 307.31C670.432 306.01 671.432 305.02 672.692 304.34C673.952 303.64 675.362 303.29 676.922 303.29C678.482 303.29 679.892 303.64 681.152 304.34C682.412 305.02 683.402 306 684.122 307.28C684.862 308.56 685.232 310.05 685.232 311.75C685.232 313.45 684.852 314.95 684.092 316.25C683.352 317.53 682.342 318.52 681.062 319.22C679.782 319.92 678.362 320.27 676.802 320.27ZM676.802 317.87C677.782 317.87 678.702 317.64 679.562 317.18C680.422 316.72 681.112 316.03 681.632 315.11C682.172 314.19 682.442 313.07 682.442 311.75C682.442 310.43 682.182 309.31 681.662 308.39C681.142 307.47 680.462 306.79 679.622 306.35C678.782 305.89 677.872 305.66 676.892 305.66C675.892 305.66 674.972 305.89 674.132 306.35C673.312 306.79 672.652 307.47 672.152 308.39C671.652 309.31 671.402 310.43 671.402 311.75C671.402 313.09 671.642 314.22 672.122 315.14C672.622 316.06 673.282 316.75 674.102 317.21C674.922 317.65 675.822 317.87 676.802 317.87ZM695.512 305.81H692.062V320H689.332V305.81H687.202V303.56H689.332V302.39C689.332 300.55 689.802 299.21 690.742 298.37C691.702 297.51 693.232 297.08 695.332 297.08V299.36C694.132 299.36 693.282 299.6 692.782 300.08C692.302 300.54 692.062 301.31 692.062 302.39V303.56H695.512V305.81ZM705.673 311.72C705.673 310.04 706.013 308.57 706.693 307.31C707.373 306.03 708.303 305.04 709.483 304.34C710.683 303.64 712.013 303.29 713.473 303.29C714.913 303.29 716.163 303.6 717.223 304.22C718.283 304.84 719.073 305.62 719.593 306.56V303.56H722.353V320H719.593V316.94C719.053 317.9 718.243 318.7 717.163 319.34C716.103 319.96 714.863 320.27 713.443 320.27C711.983 320.27 710.663 319.91 709.483 319.19C708.303 318.47 707.373 317.46 706.693 316.16C706.013 314.86 705.673 313.38 705.673 311.72ZM719.593 311.75C719.593 310.51 719.343 309.43 718.843 308.51C718.343 307.59 717.663 306.89 716.803 306.41C715.963 305.91 715.033 305.66 714.013 305.66C712.993 305.66 712.063 305.9 711.223 306.38C710.383 306.86 709.713 307.56 709.213 308.48C708.713 309.4 708.463 310.48 708.463 311.72C708.463 312.98 708.713 314.08 709.213 315.02C709.713 315.94 710.383 316.65 711.223 317.15C712.063 317.63 712.993 317.87 714.013 317.87C715.033 317.87 715.963 317.63 716.803 317.15C717.663 316.65 718.343 315.94 718.843 315.02C719.343 314.08 719.593 312.99 719.593 311.75ZM729.696 306.23C730.176 305.29 730.856 304.56 731.736 304.04C732.636 303.52 733.726 303.26 735.006 303.26V306.08H734.286C731.226 306.08 729.696 307.74 729.696 311.06V320H726.966V303.56H729.696V306.23ZM741.488 305.81V315.5C741.488 316.3 741.658 316.87 741.998 317.21C742.338 317.53 742.928 317.69 743.768 317.69H745.778V320H743.318C741.798 320 740.658 319.65 739.898 318.95C739.138 318.25 738.758 317.1 738.758 315.5V305.81H736.628V303.56H738.758V299.42H741.488V303.56H745.778V305.81H741.488ZM750.495 300.89C749.975 300.89 749.535 300.71 749.175 300.35C748.815 299.99 748.635 299.55 748.635 299.03C748.635 298.51 748.815 298.07 749.175 297.71C749.535 297.35 749.975 297.17 750.495 297.17C750.995 297.17 751.415 297.35 751.755 297.71C752.115 298.07 752.295 298.51 752.295 299.03C752.295 299.55 752.115 299.99 751.755 300.35C751.415 300.71 750.995 300.89 750.495 300.89ZM751.815 303.56V320H749.085V303.56H751.815ZM755.448 311.75C755.448 310.05 755.788 308.57 756.468 307.31C757.148 306.03 758.088 305.04 759.288 304.34C760.508 303.64 761.898 303.29 763.458 303.29C765.478 303.29 767.138 303.78 768.438 304.76C769.758 305.74 770.628 307.1 771.048 308.84H768.108C767.828 307.84 767.278 307.05 766.458 306.47C765.658 305.89 764.658 305.6 763.458 305.6C761.898 305.6 760.638 306.14 759.678 307.22C758.718 308.28 758.238 309.79 758.238 311.75C758.238 313.73 758.718 315.26 759.678 316.34C760.638 317.42 761.898 317.96 763.458 317.96C764.658 317.96 765.658 317.68 766.458 317.12C767.258 316.56 767.808 315.76 768.108 314.72H771.048C770.608 316.4 769.728 317.75 768.408 318.77C767.088 319.77 765.438 320.27 763.458 320.27C761.898 320.27 760.508 319.92 759.288 319.22C758.088 318.52 757.148 317.53 756.468 316.25C755.788 314.97 755.448 313.47 755.448 311.75ZM777.421 297.8V320H774.691V297.8H777.421ZM797.074 311.15C797.074 311.67 797.044 312.22 796.984 312.8H783.844C783.944 314.42 784.494 315.69 785.494 316.61C786.514 317.51 787.744 317.96 789.184 317.96C790.364 317.96 791.344 317.69 792.124 317.15C792.924 316.59 793.484 315.85 793.804 314.93H796.744C796.304 316.51 795.424 317.8 794.104 318.8C792.784 319.78 791.144 320.27 789.184 320.27C787.624 320.27 786.224 319.92 784.984 319.22C783.764 318.52 782.804 317.53 782.104 316.25C781.404 314.95 781.054 313.45 781.054 311.75C781.054 310.05 781.394 308.56 782.074 307.28C782.754 306 783.704 305.02 784.924 304.34C786.164 303.64 787.584 303.29 789.184 303.29C790.744 303.29 792.124 303.63 793.324 304.31C794.524 304.99 795.444 305.93 796.084 307.13C796.744 308.31 797.074 309.65 797.074 311.15ZM794.254 310.58C794.254 309.54 794.024 308.65 793.564 307.91C793.104 307.15 792.474 306.58 791.674 306.2C790.894 305.8 790.024 305.6 789.064 305.6C787.684 305.6 786.504 306.04 785.524 306.92C784.564 307.8 784.014 309.02 783.874 310.58H794.254ZM806.497 320.27C805.237 320.27 804.107 320.06 803.107 319.64C802.107 319.2 801.317 318.6 800.737 317.84C800.157 317.06 799.837 316.17 799.777 315.17H802.597C802.677 315.99 803.057 316.66 803.737 317.18C804.437 317.7 805.347 317.96 806.467 317.96C807.507 317.96 808.327 317.73 808.927 317.27C809.527 316.81 809.827 316.23 809.827 315.53C809.827 314.81 809.507 314.28 808.867 313.94C808.227 313.58 807.237 313.23 805.897 312.89C804.677 312.57 803.677 312.25 802.897 311.93C802.137 311.59 801.477 311.1 800.917 310.46C800.377 309.8 800.107 308.94 800.107 307.88C800.107 307.04 800.357 306.27 800.857 305.57C801.357 304.87 802.067 304.32 802.987 303.92C803.907 303.5 804.957 303.29 806.137 303.29C807.957 303.29 809.427 303.75 810.547 304.67C811.667 305.59 812.267 306.85 812.347 308.45H809.617C809.557 307.59 809.207 306.9 808.567 306.38C807.947 305.86 807.107 305.6 806.047 305.6C805.067 305.6 804.287 305.81 803.707 306.23C803.127 306.65 802.837 307.2 802.837 307.88C802.837 308.42 803.007 308.87 803.347 309.23C803.707 309.57 804.147 309.85 804.667 310.07C805.207 310.27 805.947 310.5 806.887 310.76C808.067 311.08 809.027 311.4 809.767 311.72C810.507 312.02 811.137 312.48 811.657 313.1C812.197 313.72 812.477 314.53 812.497 315.53C812.497 316.43 812.247 317.24 811.747 317.96C811.247 318.68 810.537 319.25 809.617 319.67C808.717 320.07 807.677 320.27 806.497 320.27ZM831.039 305.81H827.589V320H824.859V305.81H822.729V303.56H824.859V302.39C824.859 300.55 825.329 299.21 826.269 298.37C827.229 297.51 828.759 297.08 830.859 297.08V299.36C829.659 299.36 828.809 299.6 828.309 300.08C827.829 300.54 827.589 301.31 827.589 302.39V303.56H831.039V305.81ZM841.392 320.27C839.852 320.27 838.452 319.92 837.192 319.22C835.952 318.52 834.972 317.53 834.252 316.25C833.552 314.95 833.202 313.45 833.202 311.75C833.202 310.07 833.562 308.59 834.282 307.31C835.022 306.01 836.022 305.02 837.282 304.34C838.542 303.64 839.952 303.29 841.512 303.29C843.072 303.29 844.482 303.64 845.742 304.34C847.002 305.02 847.992 306 848.712 307.28C849.452 308.56 849.822 310.05 849.822 311.75C849.822 313.45 849.442 314.95 848.682 316.25C847.942 317.53 846.932 318.52 845.652 319.22C844.372 319.92 842.952 320.27 841.392 320.27ZM841.392 317.87C842.372 317.87 843.292 317.64 844.152 317.18C845.012 316.72 845.702 316.03 846.222 315.11C846.762 314.19 847.032 313.07 847.032 311.75C847.032 310.43 846.772 309.31 846.252 308.39C845.732 307.47 845.052 306.79 844.212 306.35C843.372 305.89 842.462 305.66 841.482 305.66C840.482 305.66 839.562 305.89 838.722 306.35C837.902 306.79 837.242 307.47 836.742 308.39C836.242 309.31 835.992 310.43 835.992 311.75C835.992 313.09 836.232 314.22 836.712 315.14C837.212 316.06 837.872 316.75 838.692 317.21C839.512 317.65 840.412 317.87 841.392 317.87ZM856.142 306.23C856.622 305.29 857.302 304.56 858.182 304.04C859.082 303.52 860.172 303.26 861.452 303.26V306.08H860.732C857.672 306.08 856.142 307.74 856.142 311.06V320H853.412V303.56H856.142V306.23ZM875.331 306.62C875.891 305.64 876.711 304.84 877.791 304.22C878.871 303.6 880.101 303.29 881.481 303.29C882.961 303.29 884.291 303.64 885.471 304.34C886.651 305.04 887.581 306.03 888.261 307.31C888.941 308.57 889.281 310.04 889.281 311.72C889.281 313.38 888.941 314.86 888.261 316.16C887.581 317.46 886.641 318.47 885.441 319.19C884.261 319.91 882.941 320.27 881.481 320.27C880.061 320.27 878.811 319.96 877.731 319.34C876.671 318.72 875.871 317.93 875.331 316.97V320H872.601V297.8H875.331V306.62ZM886.491 311.72C886.491 310.48 886.241 309.4 885.741 308.48C885.241 307.56 884.561 306.86 883.701 306.38C882.861 305.9 881.931 305.66 880.911 305.66C879.911 305.66 878.981 305.91 878.121 306.41C877.281 306.89 876.601 307.6 876.081 308.54C875.581 309.46 875.331 310.53 875.331 311.75C875.331 312.99 875.581 314.08 876.081 315.02C876.601 315.94 877.281 316.65 878.121 317.15C878.981 317.63 879.911 317.87 880.911 317.87C881.931 317.87 882.861 317.63 883.701 317.15C884.561 316.65 885.241 315.94 885.741 315.02C886.241 314.08 886.491 312.98 886.491 311.72ZM907.454 303.56V320H904.724V317.57C904.204 318.41 903.474 319.07 902.534 319.55C901.614 320.01 900.594 320.24 899.474 320.24C898.194 320.24 897.044 319.98 896.024 319.46C895.004 318.92 894.194 318.12 893.594 317.06C893.014 316 892.724 314.71 892.724 313.19V303.56H895.424V312.83C895.424 314.45 895.834 315.7 896.654 316.58C897.474 317.44 898.594 317.87 900.014 317.87C901.474 317.87 902.624 317.42 903.464 316.52C904.304 315.62 904.724 314.31 904.724 312.59V303.56H907.454ZM917.884 320.27C916.624 320.27 915.494 320.06 914.494 319.64C913.494 319.2 912.704 318.6 912.124 317.84C911.544 317.06 911.224 316.17 911.164 315.17H913.984C914.064 315.99 914.444 316.66 915.124 317.18C915.824 317.7 916.734 317.96 917.854 317.96C918.894 317.96 919.714 317.73 920.314 317.27C920.914 316.81 921.214 316.23 921.214 315.53C921.214 314.81 920.894 314.28 920.254 313.94C919.614 313.58 918.624 313.23 917.284 312.89C916.064 312.57 915.064 312.25 914.284 311.93C913.524 311.59 912.864 311.1 912.304 310.46C911.764 309.8 911.494 308.94 911.494 307.88C911.494 307.04 911.744 306.27 912.244 305.57C912.744 304.87 913.454 304.32 914.374 303.92C915.294 303.5 916.344 303.29 917.524 303.29C919.344 303.29 920.814 303.75 921.934 304.67C923.054 305.59 923.654 306.85 923.734 308.45H921.004C920.944 307.59 920.594 306.9 919.954 306.38C919.334 305.86 918.494 305.6 917.434 305.6C916.454 305.6 915.674 305.81 915.094 306.23C914.514 306.65 914.224 307.2 914.224 307.88C914.224 308.42 914.394 308.87 914.734 309.23C915.094 309.57 915.534 309.85 916.054 310.07C916.594 310.27 917.334 310.5 918.274 310.76C919.454 311.08 920.414 311.4 921.154 311.72C921.894 312.02 922.524 312.48 923.044 313.1C923.584 313.72 923.864 314.53 923.884 315.53C923.884 316.43 923.634 317.24 923.134 317.96C922.634 318.68 921.924 319.25 921.004 319.67C920.104 320.07 919.064 320.27 917.884 320.27ZM941.898 303.56L931.998 327.74H929.178L932.418 319.82L925.788 303.56H928.818L933.978 316.88L939.078 303.56H941.898ZM951.62 311.72C951.62 310.04 951.96 308.57 952.64 307.31C953.32 306.03 954.25 305.04 955.43 304.34C956.63 303.64 957.97 303.29 959.45 303.29C960.73 303.29 961.92 303.59 963.02 304.19C964.12 304.77 964.96 305.54 965.54 306.5V297.8H968.3V320H965.54V316.91C965 317.89 964.2 318.7 963.14 319.34C962.08 319.96 960.84 320.27 959.42 320.27C957.96 320.27 956.63 319.91 955.43 319.19C954.25 318.47 953.32 317.46 952.64 316.16C951.96 314.86 951.62 313.38 951.62 311.72ZM965.54 311.75C965.54 310.51 965.29 309.43 964.79 308.51C964.29 307.59 963.61 306.89 962.75 306.41C961.91 305.91 960.98 305.66 959.96 305.66C958.94 305.66 958.01 305.9 957.17 306.38C956.33 306.86 955.66 307.56 955.16 308.48C954.66 309.4 954.41 310.48 954.41 311.72C954.41 312.98 954.66 314.08 955.16 315.02C955.66 315.94 956.33 316.65 957.17 317.15C958.01 317.63 958.94 317.87 959.96 317.87C960.98 317.87 961.91 317.63 962.75 317.15C963.61 316.65 964.29 315.94 964.79 315.02C965.29 314.08 965.54 312.99 965.54 311.75ZM987.914 311.15C987.914 311.67 987.884 312.22 987.824 312.8H974.684C974.784 314.42 975.334 315.69 976.334 316.61C977.354 317.51 978.584 317.96 980.024 317.96C981.204 317.96 982.184 317.69 982.964 317.15C983.764 316.59 984.324 315.85 984.644 314.93H987.584C987.144 316.51 986.264 317.8 984.944 318.8C983.624 319.78 981.984 320.27 980.024 320.27C978.464 320.27 977.064 319.92 975.824 319.22C974.604 318.52 973.644 317.53 972.944 316.25C972.244 314.95 971.894 313.45 971.894 311.75C971.894 310.05 972.234 308.56 972.914 307.28C973.594 306 974.544 305.02 975.764 304.34C977.004 303.64 978.424 303.29 980.024 303.29C981.584 303.29 982.964 303.63 984.164 304.31C985.364 304.99 986.284 305.93 986.924 307.13C987.584 308.31 987.914 309.65 987.914 311.15ZM985.094 310.58C985.094 309.54 984.864 308.65 984.404 307.91C983.944 307.15 983.314 306.58 982.514 306.2C981.734 305.8 980.864 305.6 979.904 305.6C978.524 305.6 977.344 306.04 976.364 306.92C975.404 307.8 974.854 309.02 974.714 310.58H985.094ZM997.637 317.48L1002.74 303.56H1005.65L999.197 320H996.017L989.567 303.56H992.507L997.637 317.48ZM1023.33 311.15C1023.33 311.67 1023.3 312.22 1023.24 312.8H1010.1C1010.2 314.42 1010.75 315.69 1011.75 316.61C1012.77 317.51 1014 317.96 1015.44 317.96C1016.62 317.96 1017.6 317.69 1018.38 317.15C1019.18 316.59 1019.74 315.85 1020.06 314.93H1023C1022.56 316.51 1021.68 317.8 1020.36 318.8C1019.04 319.78 1017.4 320.27 1015.44 320.27C1013.88 320.27 1012.48 319.92 1011.24 319.22C1010.02 318.52 1009.06 317.53 1008.36 316.25C1007.66 314.95 1007.31 313.45 1007.31 311.75C1007.31 310.05 1007.65 308.56 1008.33 307.28C1009.01 306 1009.96 305.02 1011.18 304.34C1012.42 303.64 1013.84 303.29 1015.44 303.29C1017 303.29 1018.38 303.63 1019.58 304.31C1020.78 304.99 1021.7 305.93 1022.34 307.13C1023 308.31 1023.33 309.65 1023.33 311.15ZM1020.51 310.58C1020.51 309.54 1020.28 308.65 1019.82 307.91C1019.36 307.15 1018.73 306.58 1017.93 306.2C1017.15 305.8 1016.28 305.6 1015.32 305.6C1013.94 305.6 1012.76 306.04 1011.78 306.92C1010.82 307.8 1010.27 309.02 1010.13 310.58H1020.51ZM1029.67 297.8V320H1026.94V297.8H1029.67ZM1041.49 320.27C1039.95 320.27 1038.55 319.92 1037.29 319.22C1036.05 318.52 1035.07 317.53 1034.35 316.25C1033.65 314.95 1033.3 313.45 1033.3 311.75C1033.3 310.07 1033.66 308.59 1034.38 307.31C1035.12 306.01 1036.12 305.02 1037.38 304.34C1038.64 303.64 1040.05 303.29 1041.61 303.29C1043.17 303.29 1044.58 303.64 1045.84 304.34C1047.1 305.02 1048.09 306 1048.81 307.28C1049.55 308.56 1049.92 310.05 1049.92 311.75C1049.92 313.45 1049.54 314.95 1048.78 316.25C1048.04 317.53 1047.03 318.52 1045.75 319.22C1044.47 319.92 1043.05 320.27 1041.49 320.27ZM1041.49 317.87C1042.47 317.87 1043.39 317.64 1044.25 317.18C1045.11 316.72 1045.8 316.03 1046.32 315.11C1046.86 314.19 1047.13 313.07 1047.13 311.75C1047.13 310.43 1046.87 309.31 1046.35 308.39C1045.83 307.47 1045.15 306.79 1044.31 306.35C1043.47 305.89 1042.56 305.66 1041.58 305.66C1040.58 305.66 1039.66 305.89 1038.82 306.35C1038 306.79 1037.34 307.47 1036.84 308.39C1036.34 309.31 1036.09 310.43 1036.09 311.75C1036.09 313.09 1036.33 314.22 1036.81 315.14C1037.31 316.06 1037.97 316.75 1038.79 317.21C1039.61 317.65 1040.51 317.87 1041.49 317.87ZM1056.24 306.59C1056.78 305.65 1057.58 304.87 1058.64 304.25C1059.72 303.61 1060.97 303.29 1062.39 303.29C1063.85 303.29 1065.17 303.64 1066.35 304.34C1067.55 305.04 1068.49 306.03 1069.17 307.31C1069.85 308.57 1070.19 310.04 1070.19 311.72C1070.19 313.38 1069.85 314.86 1069.17 316.16C1068.49 317.46 1067.55 318.47 1066.35 319.19C1065.17 319.91 1063.85 320.27 1062.39 320.27C1060.99 320.27 1059.75 319.96 1058.67 319.34C1057.61 318.7 1056.8 317.91 1056.24 316.97V327.8H1053.51V303.56H1056.24V306.59ZM1067.4 311.72C1067.4 310.48 1067.15 309.4 1066.65 308.48C1066.15 307.56 1065.47 306.86 1064.61 306.38C1063.77 305.9 1062.84 305.66 1061.82 305.66C1060.82 305.66 1059.89 305.91 1059.03 306.41C1058.19 306.89 1057.51 307.6 1056.99 308.54C1056.49 309.46 1056.24 310.53 1056.24 311.75C1056.24 312.99 1056.49 314.08 1056.99 315.02C1057.51 315.94 1058.19 316.65 1059.03 317.15C1059.89 317.63 1060.82 317.87 1061.82 317.87C1062.84 317.87 1063.77 317.63 1064.61 317.15C1065.47 316.65 1066.15 315.94 1066.65 315.02C1067.15 314.08 1067.4 312.98 1067.4 311.72ZM1088.78 311.15C1088.78 311.67 1088.75 312.22 1088.69 312.8H1075.55C1075.65 314.42 1076.2 315.69 1077.2 316.61C1078.22 317.51 1079.45 317.96 1080.89 317.96C1082.07 317.96 1083.05 317.69 1083.83 317.15C1084.63 316.59 1085.19 315.85 1085.51 314.93H1088.45C1088.01 316.51 1087.13 317.8 1085.81 318.8C1084.49 319.78 1082.85 320.27 1080.89 320.27C1079.33 320.27 1077.93 319.92 1076.69 319.22C1075.47 318.52 1074.51 317.53 1073.81 316.25C1073.11 314.95 1072.76 313.45 1072.76 311.75C1072.76 310.05 1073.1 308.56 1073.78 307.28C1074.46 306 1075.41 305.02 1076.63 304.34C1077.87 303.64 1079.29 303.29 1080.89 303.29C1082.45 303.29 1083.83 303.63 1085.03 304.31C1086.23 304.99 1087.15 305.93 1087.79 307.13C1088.45 308.31 1088.78 309.65 1088.78 311.15ZM1085.96 310.58C1085.96 309.54 1085.73 308.65 1085.27 307.91C1084.81 307.15 1084.18 306.58 1083.38 306.2C1082.6 305.8 1081.73 305.6 1080.77 305.6C1079.39 305.6 1078.21 306.04 1077.23 306.92C1076.27 307.8 1075.72 309.02 1075.58 310.58H1085.96ZM1095.12 306.23C1095.6 305.29 1096.28 304.56 1097.16 304.04C1098.06 303.52 1099.15 303.26 1100.43 303.26V306.08H1099.71C1096.65 306.08 1095.12 307.74 1095.12 311.06V320H1092.39V303.56H1095.12V306.23ZM1109.4 320.27C1108.14 320.27 1107.01 320.06 1106.01 319.64C1105.01 319.2 1104.22 318.6 1103.64 317.84C1103.06 317.06 1102.74 316.17 1102.68 315.17H1105.5C1105.58 315.99 1105.96 316.66 1106.64 317.18C1107.34 317.7 1108.25 317.96 1109.37 317.96C1110.41 317.96 1111.23 317.73 1111.83 317.27C1112.43 316.81 1112.73 316.23 1112.73 315.53C1112.73 314.81 1112.41 314.28 1111.77 313.94C1111.13 313.58 1110.14 313.23 1108.8 312.89C1107.58 312.57 1106.58 312.25 1105.8 311.93C1105.04 311.59 1104.38 311.1 1103.82 310.46C1103.28 309.8 1103.01 308.94 1103.01 307.88C1103.01 307.04 1103.26 306.27 1103.76 305.57C1104.26 304.87 1104.97 304.32 1105.89 303.92C1106.81 303.5 1107.86 303.29 1109.04 303.29C1110.86 303.29 1112.33 303.75 1113.45 304.67C1114.57 305.59 1115.17 306.85 1115.25 308.45H1112.52C1112.46 307.59 1112.11 306.9 1111.47 306.38C1110.85 305.86 1110.01 305.6 1108.95 305.6C1107.97 305.6 1107.19 305.81 1106.61 306.23C1106.03 306.65 1105.74 307.2 1105.74 307.88C1105.74 308.42 1105.91 308.87 1106.25 309.23C1106.61 309.57 1107.05 309.85 1107.57 310.07C1108.11 310.27 1108.85 310.5 1109.79 310.76C1110.97 311.08 1111.93 311.4 1112.67 311.72C1113.41 312.02 1114.04 312.48 1114.56 313.1C1115.1 313.72 1115.38 314.53 1115.4 315.53C1115.4 316.43 1115.15 317.24 1114.65 317.96C1114.15 318.68 1113.44 319.25 1112.52 319.67C1111.62 320.07 1110.58 320.27 1109.4 320.27Z" fill="white"/>
<path d="M306.543 100V61.532H320.408C323.122 61.532 325.6 61.9057 327.842 62.653C330.084 63.361 331.874 64.5803 333.211 66.311C334.548 68.0417 335.217 70.441 335.217 73.509C335.217 76.341 334.588 78.6813 333.329 80.53C332.11 82.3393 330.458 83.6963 328.373 84.601L337.105 100H327.37L319.995 86.135H315.216V100H306.543ZM315.216 79.232H319.7C321.981 79.232 323.712 78.76 324.892 77.816C326.111 76.8327 326.721 75.397 326.721 73.509C326.721 71.621 326.111 70.3033 324.892 69.556C323.712 68.8087 321.981 68.435 319.7 68.435H315.216V79.232ZM342.727 100V61.532H351.4V100H342.727ZM367.966 100V68.848H357.405V61.532H387.259V68.848H376.698V100H367.966ZM393.257 100V61.532H401.93V100H393.257ZM411.003 100V61.532H419.912L429.942 80.648L433.718 89.144H433.954C433.797 87.0987 433.58 84.8173 433.305 82.3C433.03 79.7827 432.892 77.3833 432.892 75.102V61.532H441.152V100H432.243L422.213 80.825L418.437 72.447H418.201C418.398 74.571 418.614 76.8523 418.85 79.291C419.125 81.7297 419.263 84.0897 419.263 86.371V100H411.003ZM467.232 100.708C463.732 100.708 460.546 99.9607 457.674 98.466C454.842 96.9713 452.581 94.7687 450.889 91.858C449.237 88.908 448.411 85.2893 448.411 81.002C448.411 76.754 449.257 73.1353 450.948 70.146C452.679 67.1173 454.96 64.8163 457.792 63.243C460.624 61.6303 463.751 60.824 467.173 60.824C469.966 60.824 472.365 61.3353 474.371 62.358C476.377 63.3807 478.01 64.541 479.268 65.839L474.725 71.385C473.742 70.5197 472.7 69.792 471.598 69.202C470.497 68.612 469.12 68.317 467.468 68.317C464.479 68.317 462.04 69.4183 460.152 71.621C458.264 73.8237 457.32 76.8523 457.32 80.707C457.32 84.6403 458.225 87.7083 460.034 89.911C461.844 92.1137 464.538 93.215 468.117 93.215C468.904 93.215 469.671 93.1167 470.418 92.92C471.166 92.7233 471.775 92.4283 472.247 92.035V85.427H465.875V78.347H479.917V96.047C478.58 97.345 476.79 98.4463 474.548 99.351C472.346 100.256 469.907 100.708 467.232 100.708ZM499.605 100.708C497.088 100.708 494.571 100.236 492.053 99.292C489.575 98.348 487.353 96.9713 485.386 95.162L490.342 89.203C491.719 90.383 493.253 91.3467 494.944 92.094C496.636 92.8413 498.268 93.215 499.841 93.215C501.651 93.215 502.988 92.8807 503.853 92.212C504.758 91.5433 505.21 90.6387 505.21 89.498C505.21 88.2787 504.699 87.3937 503.676 86.843C502.693 86.253 501.356 85.604 499.664 84.896L494.649 82.772C493.351 82.2213 492.112 81.4937 490.932 80.589C489.752 79.645 488.789 78.4847 488.041 77.108C487.294 75.7313 486.92 74.1187 486.92 72.27C486.92 70.146 487.491 68.2187 488.631 66.488C489.811 64.7573 491.424 63.3807 493.469 62.358C495.554 61.3353 497.934 60.824 500.608 60.824C502.811 60.824 505.014 61.2567 507.216 62.122C509.419 62.9873 511.346 64.246 512.998 65.898L508.573 71.385C507.315 70.4017 506.056 69.6543 504.797 69.143C503.539 68.5923 502.142 68.317 500.608 68.317C499.114 68.317 497.914 68.6317 497.009 69.261C496.144 69.851 495.711 70.6967 495.711 71.798C495.711 72.978 496.262 73.863 497.363 74.453C498.504 75.043 499.9 75.6723 501.552 76.341L506.508 78.347C508.829 79.291 510.678 80.589 512.054 82.241C513.431 83.893 514.119 86.076 514.119 88.79C514.119 90.914 513.549 92.8807 512.408 94.69C511.268 96.4993 509.616 97.9547 507.452 99.056C505.289 100.157 502.673 100.708 499.605 100.708Z" fill="#F2F2F2"/>
<path d="M263.053 97.6904C263.823 96.1865 264.468 94.8438 264.987 93.6621C260.744 86.071 257.879 76.3045 256.393 64.3628C255.945 64.3986 255.489 64.4165 255.023 64.4165H252.553C253.609 73.4757 255.972 82.2843 259.643 90.8423C260.645 93.1519 261.782 95.4346 263.053 97.6904ZM281.261 98.3081C282.085 96.6431 282.702 95.3719 283.114 94.4946C279.301 87.0288 276.499 79.9748 274.708 73.3325C274.333 75.1587 273.786 77.334 273.07 79.8584C274.073 83.6003 275.666 87.7181 277.851 92.2119C278.835 94.2171 279.972 96.2492 281.261 98.3081ZM285.988 61.0059C287.778 61.3281 289.694 61.4893 291.735 61.4893C293.776 61.4893 295.781 61.2565 297.75 60.791H298.073C298.467 60.791 298.807 60.9342 299.093 61.2207C299.38 61.4893 299.523 61.8026 299.523 62.1606C299.523 62.5008 299.407 62.8052 299.174 63.0737C298.959 63.3244 298.556 63.5124 297.965 63.6377C296.318 63.9958 294.725 64.2017 293.185 64.2554C291.771 74.7111 290.231 82.6335 288.566 88.0225C287.545 91.3346 286.498 94.0828 285.424 96.2671C284.35 98.4513 283.589 99.9642 283.141 100.806C282.694 101.647 282.362 102.131 282.147 102.256C281.951 102.399 281.646 102.471 281.234 102.471C280.84 102.471 280.5 102.274 280.214 101.88C276.794 96.9027 273.912 91.1287 271.566 84.5581C269.328 91.0571 266.911 96.6252 264.315 101.262C264.065 101.781 263.671 102.041 263.134 102.041C262.597 102.041 262.185 101.799 261.898 101.316C256.885 93.1698 253.251 83.5824 250.995 72.5537C250.422 69.707 249.984 66.9588 249.679 64.3091C248.784 64.2375 248.041 64.1748 247.45 64.1211C246.376 63.9958 245.839 63.5034 245.839 62.644C245.893 62.2144 246.054 61.8831 246.322 61.6504C246.591 61.3997 246.904 61.2744 247.262 61.2744H247.37C249.411 61.4893 251.846 61.5967 254.674 61.5967C257.521 61.5967 260.556 61.3281 263.778 60.791H263.993C264.405 60.791 264.745 60.9342 265.014 61.2207C265.282 61.4893 265.417 61.8026 265.417 62.1606C265.417 62.5187 265.3 62.832 265.067 63.1006C264.853 63.3691 264.459 63.5482 263.886 63.6377C261.97 63.8883 260.43 64.0763 259.267 64.2017C260.036 71.381 261.684 78.3545 264.208 85.1221C264.853 86.8945 265.587 88.6312 266.41 90.332C270.313 81.1117 272.515 72.8581 273.017 65.5713C273.052 65.2132 273.187 64.9178 273.419 64.6851C273.67 64.4344 273.974 64.3001 274.333 64.2822C275.102 64.2464 275.595 64.6224 275.81 65.4102C277.278 73.5026 280.196 82.0605 284.564 91.084C286.785 85.3906 288.709 76.4657 290.338 64.3091C288.655 64.2375 287.035 64.0674 285.478 63.7988C285.155 63.7451 284.878 63.5929 284.645 63.3423C284.43 63.0737 284.323 62.7425 284.323 62.3486C284.323 61.9368 284.475 61.6146 284.779 61.3818C285.102 61.1312 285.415 61.0059 285.719 61.0059H285.988Z" fill="#F2F2F2"/>
</svg>
